<svg width="86" height="48" viewBox="0 0 86 48" fill="none" xmlns="http://www.w3.org/2000/svg">
<path d="M6.82792 45.0094L6.83667 44.8637L6.81875 44.7968L6.68895 44.4016L6.49185 43.666L6.5376 43.3909L6.57301 43.1664C6.58015 42.9256 6.58133 42.6625 6.60479 42.3934L6.48053 41.6622L6.76305 40.4875L6.74353 40.3255L6.84421 39.9879L6.81552 39.6134L6.81829 39.4454L6.87599 39.2149L6.95 38.9562L6.98104 38.8045L7.00013 38.6082L7.1824 38.1294L7.20309 38.0283L7.19711 38.006L7.21343 37.9777C7.21183 37.8826 7.26079 37.7978 7.26516 37.7249L7.23967 37.5406L7.19946 37.4797L7.26036 37.4395L7.34355 37.3934L7.43665 36.9384L7.44103 36.8655L7.47366 36.809L7.51067 36.6796L7.47046 36.6187L7.42268 36.4404L7.55482 36.3094L7.80353 35.4544L7.87158 35.1734L7.93525 34.9652L7.99455 34.8298L8.01086 34.8016L8.26992 33.896L8.28026 33.8454L8.47128 33.2208L8.49357 33.2149C8.4876 33.1926 8.50989 33.1866 8.50989 33.1866L8.51863 33.0409L8.62966 32.6528L8.69055 32.6126L8.75423 32.4044L8.77054 32.3761L9.04315 31.6103L9.28748 30.8281L9.32449 30.6987L9.54377 30.0904L9.6357 29.8986L9.74235 29.5833L9.82394 29.442L9.99427 28.9185L9.97038 28.8294L9.98669 28.8011L10.0579 28.7103L10.0683 28.6598L10.077 28.5141L10.126 28.4293L10.0428 28.4755L10.0205 28.4815L10.0026 28.4146L10.0396 28.2852L10.1228 28.239L10.1467 28.3282L10.2 28.1706L10.3082 27.9504L10.3882 27.714L10.3807 27.5965L10.4829 27.3541L10.7739 27.0134L10.9072 26.6193L11.023 26.5166L11.0497 26.4378L11.0883 26.4035L11.0541 26.3649L11.0867 26.3084L11.1106 26.3975L11.1878 26.3291L11.2324 26.3171L11.2917 26.1818L11.308 26.1535L11.2797 26.1372L11.2602 25.9752L11.3315 25.8844L11.4087 25.816L11.456 25.636L11.5126 25.6687L11.511 25.5735L11.7068 25.2344L11.7677 25.1942L12.3432 24.1321L12.3862 24.025L12.4928 23.7098L12.6576 23.5223L12.7941 23.3184L13.4245 22.1939L13.4838 22.0585L13.5758 21.8667L13.8146 21.4204L13.8472 21.3639L14.0207 21.0307L14.3411 20.4431L14.3471 20.4654L14.445 20.2959L14.5174 19.942L14.6392 19.8616L15.0515 19.0821L15.2625 18.9778L15.5431 18.6876L15.6545 18.6578C15.6545 18.6578 15.6768 18.6518 15.6931 18.6235L16.088 18.1355L16.0983 18.0849L16.1309 18.0284L16.2201 18.0045L16.2691 17.9197L16.3566 17.8007L16.4056 17.7159L16.3164 17.7398L16.2925 17.6506L16.3861 17.5539L16.5198 17.5181L16.517 17.686L16.6492 17.5551L16.8422 17.3839L17.0576 17.2067L17.1005 17.0996L17.3039 16.8779L17.7943 16.7465L18.0869 16.5009L18.3544 16.4292L18.4033 16.3444L18.3914 16.2998L18.4702 16.3265L18.4435 16.4053L18.5446 16.426L18.6859 16.5076L18.7039 16.5745L18.8599 16.5327C19.0442 16.5072 19.1899 16.5159 19.297 16.5589L19.3981 16.5796L19.6688 16.6982L19.7149 16.7814L19.8133 16.97L19.836 17.3223L19.7544 17.4636L19.3787 17.7554L19.1096 17.732L18.9503 17.5835L18.9841 17.2639L19.0152 17.1122L18.9364 17.0856L18.8293 17.0426L18.8353 17.0649L18.6291 17.4546L18.3246 17.6556L18.2251 17.7301L17.9114 17.7186L17.6021 17.6342L17.5695 17.6907L17.5353 17.6521L17.3971 17.7608L17.2471 17.8249L16.8208 18.1064L16.5848 18.3846L16.5107 18.6434L16.3117 18.7922L16.2285 18.8384L16.0399 18.9368L15.8795 19.0514L15.8914 19.096L15.7903 19.0753L15.7191 19.1661L15.6805 19.2003C15.6641 19.2286 15.6641 19.2286 15.6418 19.2345L15.5603 19.3759L15.4401 19.5514L15.2263 19.8237L15.1121 20.0215L15.0898 20.0275L14.7352 20.5765L14.6699 20.6895L14.5601 20.8145L13.9873 21.7086L13.8019 21.9972L13.7605 22.1994L13.6463 22.3973L13.6419 22.4701L13.4015 22.8212L13.3362 22.9343L13.3215 23.0577L12.9609 23.5843L12.8837 23.6528L12.8244 23.7881L12.7472 23.8566L12.6879 23.992L12.6063 24.1333L12.584 24.1392L12.5677 24.1675L12.504 24.3757L12.4001 24.523L12.3751 24.6969L12.2386 24.9008L12.2059 24.9573L11.9616 25.7395L11.917 25.7514L11.5286 26.62L11.5123 26.6483L11.4681 27.0185L11.3109 27.3234L11.2679 27.4305L11.1015 27.5228L10.9503 27.8501L10.7768 28.1832L10.7664 28.2338L10.6049 28.6116L10.5678 28.7409L10.4922 28.9045L10.4699 28.9105L10.4286 29.1127L10.3589 29.2986L10.3263 29.3552L10.2996 29.434L10.0461 30.0036L10.0803 30.0422L10.0581 30.0482L9.96015 30.2178L9.97209 30.2624L9.59401 31.0804L9.53908 31.1429L9.35681 31.6218L9.36279 31.6441L9.3405 31.65C9.03089 32.5453 8.74357 33.4346 8.50083 34.3119L8.53069 34.4234L8.51 34.5245L8.43438 34.6881L8.43759 34.8783L8.34842 34.9022L8.37231 34.9914L8.27921 35.4464L8.21394 35.5594L7.91947 36.6895L7.859 37.088L7.8654 37.4685L7.74841 37.8344L7.64016 38.0545L7.4404 38.8248C7.31946 39.6217 7.18657 40.374 7.12653 41.1307L7.1325 41.153L7.11021 41.159C7.12216 41.2036 7.10584 41.2318 7.11778 41.2764C7.08675 41.4281 7.078 41.5738 7.07523 41.7417L7.14093 41.9869L7.03791 42.8507L7.05583 42.9176L7.03237 43.1867L7.11759 43.5939L7.21869 43.6146L7.14745 43.7053L7.04954 43.8749L7.22275 44.5213L7.19609 44.6002C7.38402 45.1232 7.66111 45.6223 8.17742 46.0335L8.69053 46.2544L8.75143 46.2141L8.86448 46.2794C9.05475 46.2762 9.30592 46.2328 9.52883 46.1731L9.60007 46.0823L9.82735 45.9497L9.91054 45.9036L10.1394 45.8661L10.352 45.8569L10.346 45.8347L10.3683 45.8287L10.3966 45.845L10.4189 45.839L10.502 45.7928L10.5689 45.7749L10.7516 45.6543L10.9224 45.4891L11.2046 45.294L11.5847 44.9294L11.7511 44.837L11.8609 44.712L12.3421 44.3681L12.3971 44.3056L13.0323 43.4664L13.3945 43.0349L13.7909 42.642L14.1547 42.3056L14.2586 42.1583L14.3402 42.017L14.493 41.7849L14.6355 41.6034L14.7453 41.4784L14.9961 41.0767L15.1756 40.7658L15.3909 40.5886L15.535 40.5023L16.2192 39.5783L16.2355 39.55L16.3481 39.2571L16.4417 39.1603L16.5559 38.9625L16.725 38.7021L16.8615 38.4983L16.9937 38.3674L17.1095 38.2647L17.7981 37.2679L17.8307 37.2113L17.97 36.8395L18.1734 36.6178L18.3545 36.402L18.4584 36.2548L18.8619 35.621L18.8723 35.5705L18.8946 35.5645L18.9272 35.508L19.1943 35.078L19.2906 34.8133L19.6512 34.2867L19.847 33.9475L20.4034 33.0817L20.9092 32.2055L21.068 31.9957L21.1807 31.7028L21.3395 31.493L21.3733 31.1733L21.6228 31.0348C21.6169 31.0125 21.6332 30.9842 21.6332 30.9842L21.8107 30.2199L22.2501 29.72L22.3436 29.6232L22.4757 29.4922L22.6982 29.0743L22.7472 28.9895C22.8391 28.7976 22.9593 28.6221 23.0735 28.4242L23.0839 28.3737L23.1002 28.3454C23.1165 28.3171 23.1551 28.2829 23.1655 28.2323L23.6164 27.4187L23.6267 27.3681L23.6415 27.2447L23.6339 27.1273L23.7971 26.8447L23.8205 26.5756L23.8902 26.3897L23.9837 26.2929L23.9598 26.2038L24.0904 25.9777L24.0888 25.8825L24.2448 25.8407L24.4525 25.5461L24.4346 25.4793L24.4732 25.445L24.5994 25.2918L24.8458 24.963L24.8279 24.8961L24.8442 24.8678L24.8633 24.6716L24.9046 24.4694L24.9759 24.3786L25.1064 24.1525L25.3337 24.0199L25.5045 23.8547L25.6454 23.5781L25.6274 23.5112L25.9032 22.9356L25.9641 22.8954L26.234 22.2975L26.216 22.2306L26.3955 21.9197L26.382 21.78L26.4799 21.6104L26.5659 21.3962L26.6371 21.3055L26.6355 21.2103L26.7095 20.9516L26.7716 20.6483L26.7624 20.4357L26.8061 19.7073L27.0509 19.2833L27.226 19.0453L27.4386 19.0361L27.6022 19.1117C27.7196 19.1041 27.855 19.1634 27.8017 19.3211L27.8299 19.3374L27.8821 19.4429L27.8777 19.5157L27.9135 19.6495L27.945 19.856L27.9259 20.0523L27.834 20.2442L27.7882 20.5192L27.7958 20.6366L27.7572 20.6709L27.7425 20.7943L27.7218 20.8954L27.6641 21.1259L27.5972 21.1438L27.5602 21.2732L27.489 21.3639L27.4014 21.4829L27.3851 21.5112L27.2784 21.8265L27.3099 22.0331L27.2625 22.213L27.1483 22.4108L27.0651 22.457L27.0162 22.5418L26.9792 22.6712L27.0628 22.9832L27.0258 23.1126L26.9322 23.2094L26.8566 23.373L26.818 23.4072L26.7516 23.7834L26.7993 23.9617L26.7667 24.0182L26.6791 24.1372L26.6481 24.2889L26.7003 24.3944L26.635 24.5074L26.5892 24.7825L26.518 24.8733L26.5136 24.9461L26.5435 25.0576L26.4516 25.2494L26.3008 25.9349L26.304 26.1252L26.2658 26.5176L26.2037 26.821L26.0318 27.2493L25.8734 27.8173L25.7584 28.6365L25.7764 28.7034L25.7692 28.9442L25.7501 29.1405L25.6864 29.3487L25.6586 29.6906L25.6706 29.7352L25.6252 30.3685L25.5839 30.5707C25.5811 30.7387 25.5723 30.8844 25.5859 31.0241L25.5863 31.3823L25.6476 31.7004L25.6198 32.0423L25.6915 32.3098L25.6425 32.3946L25.588 32.8153C25.5777 32.8659 25.5896 32.9105 25.6016 32.9551L25.6434 33.1111L25.6346 33.2568C25.6438 33.4693 25.6753 33.6759 25.7067 33.8825L25.7529 33.9657L25.8023 34.2392L25.8218 34.4012L25.8278 34.4235L25.956 34.7236L26.0575 35.1025L26.1439 35.2466L26.2096 35.4918L26.3422 35.7191L26.3378 35.7919L26.3796 35.948L26.4019 35.942L26.4198 36.0089L26.6057 36.0785L26.7932 36.2433L26.8394 36.3265L27.0225 36.5641L27.054 36.7707C27.5584 37.1373 28.2319 37.2435 29.1056 36.9377C29.3225 36.8557 29.5335 36.7514 29.7385 36.6248L30.1246 36.2824L30.3192 36.2064L30.6177 35.983L30.845 35.8505L31.6498 35.1092L32.3698 34.319L32.3965 34.2402L32.545 34.081L32.6429 33.9114L32.6739 33.7597L32.7853 33.7299L32.812 33.651L32.8996 33.532L32.9099 33.4815L33.0273 33.4739L33.3302 33.1777L33.9818 32.3103L34.0144 32.2538L34.0367 32.2478C34.0367 32.2478 34.059 32.2418 34.053 32.2195L34.0693 32.1913L34.2222 31.9592L34.2831 31.919L34.2994 31.8907L34.6866 31.2852L34.8335 31.0309L34.9418 30.8107L35.062 30.6352L35.1169 30.5727L35.1435 30.4939L35.2104 30.4759L35.2267 30.4477L35.2474 30.3466L35.2697 30.3406L35.3024 30.2841L35.4106 30.0639L35.4715 30.0237L35.8038 29.4807L35.9181 29.2829L35.9758 29.0524L36.1079 28.9215L36.1955 28.8024L36.2993 28.6551L37.1506 27.0175L37.1877 26.8881L37.3003 26.5951L37.4308 26.369L37.5673 26.1652L37.6163 26.0804L37.6696 25.9228L37.7556 25.7086L37.8535 25.539L37.8921 25.5048L37.9514 25.3694L38.1233 24.9411L38.1647 24.7389L38.4138 24.2421L38.5265 23.9491L38.8822 23.1371L39.0972 22.6017L39.1135 22.5734L39.1222 22.4277L39.1994 22.3592L39.33 22.1331L39.41 21.8967L39.6531 21.3776C39.8664 20.7471 40.0901 20.066 40.2528 19.4251L40.2389 18.9271L40.2297 18.7146L40.1939 18.5808L40.2826 18.1987L40.2033 17.8138L40.2224 17.6175L40.2861 17.4093L40.302 17.0228L40.2112 16.9516L40.1993 16.907C40.1085 16.8357 39.9895 16.7482 39.915 16.6487L39.7275 16.4839L39.5862 16.4023L39.5281 16.2745L39.6396 16.2447L40.0918 16.5058L40.2108 16.5933L40.3016 16.6646L40.4309 16.7016L40.4282 16.8696L40.4907 16.9245L40.5265 17.0582L40.714 17.223L40.7319 17.2899L40.5744 18.5744L40.5852 18.8821L40.5645 18.9832L40.4877 19.4099L40.4746 19.6285L40.4065 19.9095C40.3357 20.3585 40.2084 20.7749 40.0364 21.2032L40.0767 21.2641L40.0321 21.2761L40.0217 21.3266L39.9668 21.3891L39.3428 22.8942L39.334 23.0399L39.266 23.3209L39.0865 23.6318L39.0201 24.008L38.9667 24.1656L38.8748 24.3575L38.722 24.5896L38.6404 24.7309L38.5648 24.8945L38.5484 24.9228C38.2579 25.6218 37.9391 26.3045 37.5921 26.9709L37.5388 27.1285L37.3593 27.4394L37.2554 27.5867L36.576 28.796L36.5629 29.0146L36.5243 29.0488L36.4069 29.0564C35.8891 29.888 35.3653 30.6972 34.8133 31.4902L34.7969 31.5185L34.7257 31.6092C34.5832 31.7908 34.4467 31.9946 34.3102 32.1984L34.1187 32.4647L34.0714 32.6446L33.9599 32.6745L33.9317 32.6582L32.8853 34.0137L32.8972 34.0582L32.82 34.1267C32.7977 34.1327 32.7814 34.1609 32.7651 34.1892L32.7504 34.3126L32.6035 34.567L32.3866 34.649L31.8938 35.3066C31.7127 35.5224 31.5257 35.7159 31.3103 35.893L31.3119 35.9881L31.2733 36.0224L31.1113 36.0419C30.5366 36.4826 29.8651 36.8298 29.2903 37.2705C28.671 37.7231 27.71 37.1683 26.931 37.1142C26.8582 37.1099 26.8076 37.0995 26.7511 37.0669L26.7571 37.0892L26.7288 37.0728L26.6217 37.0299L26.5995 37.0358L26.3956 36.8993L26.3495 36.8161C26.2527 36.7226 26.1723 36.6008 26.0919 36.479L26.0696 36.485L26.019 36.4746L26.0011 36.4078L25.9995 36.3126C25.9131 36.1685 25.8431 35.9962 25.767 35.8015L25.6926 35.702L25.6372 35.4063L25.5954 35.2502L25.5194 35.0556L25.5118 34.9382L25.4819 34.8267L25.4863 34.7539C25.4743 34.7093 25.4847 34.6587 25.4727 34.6142L25.413 34.3913L25.4234 34.3407L25.3724 33.9721L25.3186 33.7715L25.3111 33.6541L25.2764 33.2572L25.2286 33.0789L25.2091 32.9169L25.2162 32.6761L25.2103 32.6538C25.1724 32.0666 25.1302 31.5524 25.1417 31.2387L25.0939 31.0604L24.98 30.2786L24.9246 29.9828L24.7682 29.6664L24.8111 29.5593L24.9819 29.3941L25.0233 29.1919L25.1136 28.9049L25.1446 28.7532L25.3002 28.3532L25.3993 27.9205L25.4924 27.4655L25.5012 27.3198L25.4785 26.9675L25.5019 26.6984L25.5656 26.4902L25.4967 26.0548L25.5337 25.9254L25.7013 25.5699L25.8541 25.3378L25.8998 25.0628L25.9221 25.0568L26.1732 23.6755L26.059 23.8734L25.9877 23.9641L25.9833 24.037L25.9105 24.0326C25.3529 25.1615 24.7476 26.1122 24.1601 27.1296L24.0861 27.3884L24.0208 27.5014L23.8501 27.6666L23.5786 28.1694L22.8177 29.5201L22.797 29.6212L22.7317 29.7342L22.7186 29.9528L22.6696 30.0376L22.4973 30.1076L21.7526 31.43L21.7749 31.4241L21.5138 31.8763L21.4546 32.0116L21.2631 32.2779L21.1592 32.4252L21.1178 32.6274L20.8329 32.9905L20.5881 33.4144L20.5941 33.4367L20.3923 33.7536L19.385 35.4331L19.3909 35.4554L19.2484 35.6369L18.9814 36.0668L18.9503 36.2185L18.8317 36.4892L18.5898 36.7451L18.4445 37.0947L18.3629 37.236L18.2204 37.4175L18.0333 37.611L17.9784 37.6735L16.876 39.3545L16.9014 39.5388L16.9253 39.628L16.8362 39.6519L16.5094 39.8589L16.3952 40.0568L16.3418 40.2144L16.2869 40.2769L15.8539 41.1574L15.6625 41.4237L15.3035 42.0455L15.1017 42.3624L14.9429 42.5722L14.4736 42.9607L14.1799 43.4695L13.8547 43.7716L13.66 43.8477L13.0336 44.5411L12.6996 44.989L12.2331 45.2095C11.7149 45.6829 11.1668 46.0448 10.6884 46.2207L10.3317 46.3163L10.1936 46.425L9.9098 46.5249L9.6037 46.6308L9.33024 46.6802L9.25143 46.6536C8.97797 46.7029 8.72082 46.7241 8.49632 46.6886L8.42507 46.7794L8.34466 46.6576C8.26584 46.6309 8.15876 46.588 8.09626 46.533L7.97723 46.4455L7.73918 46.2704L7.65876 46.1486C7.56203 46.055 7.46529 45.9615 7.39085 45.862L7.23758 45.7358L7.11259 45.626L6.96967 45.4492L6.8757 45.1877L6.82792 45.0094ZM46.1716 25.3887C46.1792 25.5061 46.1867 25.6236 46.172 25.747L46.1306 25.9492C46.1203 25.9997 46.1605 26.0606 46.1561 26.1335L46.0821 26.3922L45.9858 26.6569L45.821 26.8444L45.6579 27.1271L45.5986 27.2624L45.517 27.4037L45.3745 27.5853L45.3359 27.6195C45.0465 28.0554 44.662 28.4929 44.2716 28.9081L44.2835 28.9527L44.2167 28.9706L44.0133 29.1923L44.0192 29.2146L43.9866 29.2711L43.8974 29.295C43.8811 29.3233 43.8811 29.3233 43.8588 29.3293L43.8768 29.3961L43.7876 29.42L43.6451 29.6016L43.6228 29.6075L43.5412 29.7488L43.3971 29.8352L43.3378 29.9706L43.2117 30.1238L43.1285 30.17L42.8892 30.258L42.812 30.3265L42.6843 30.3846L42.6397 30.3966C42.3189 30.6259 42.0426 30.8432 41.7545 31.016L41.6832 31.1068L41.6223 31.147L41.563 31.2823L41.5021 31.3225L41.3341 31.3198L41.1781 31.3616L40.7486 31.4528L40.3354 31.5157L40.3295 31.4934C40.3072 31.4994 40.2686 31.5336 40.2463 31.5396C40.1066 31.5531 40.0114 31.5547 39.888 31.54C39.7809 31.497 39.2531 31.3995 39.189 31.2495L39.1353 31.0489L39.0744 31.0891L39.0162 30.9613L39.0648 30.5183L39.1193 30.0975L39.1726 29.9399L39.3684 29.6007L39.4946 29.4475L39.5212 29.3686L39.8285 28.9996L40.0733 28.5757L40.1103 28.4463L40.1755 28.3332L40.5644 27.8229L40.6683 27.6756L40.7738 27.6235L40.8064 27.5669L40.9549 27.4077L40.9815 27.3289L41.0158 27.3675L41.4432 26.8229L41.5248 26.6816L41.5857 26.6414L41.7505 26.4539L41.8587 26.2338L42.0116 26.0017L42.2938 25.8066L42.5179 25.4838L42.6723 25.3468L42.843 25.1816C43.0301 24.9881 43.1889 24.7784 43.3597 24.6131L43.0357 24.6522C42.8856 24.7163 42.7578 24.7744 42.6241 24.8102L42.5632 24.8505L42.5469 24.8787L42.474 24.8743L42.2065 24.946C42.0119 25.0221 41.7786 25.1323 41.5334 25.198L41.5111 25.204L41.0044 25.3637L40.719 25.3685L40.5614 25.3152L40.4647 25.2216L40.4451 25.0596L40.5518 24.7443L40.7122 24.6297L40.9232 24.5254L41.1401 24.4434L41.3363 24.4625L41.6946 24.462C42.0289 24.3724 42.3916 24.2992 42.7884 24.2645L43.0217 24.1542L43.3843 24.0809L43.7899 23.9006L43.8627 23.905L44.2297 23.7588C44.2906 23.7186 44.3456 23.6561 44.4005 23.5936L44.5653 23.4061L44.7197 23.2692L44.7806 23.229L44.8741 23.1322L45.0465 23.0622L45.2411 22.9861C45.3912 22.922 45.5413 22.8579 45.7033 22.8384L45.8533 22.7743L45.9381 22.8233C46.0332 22.8217 46.1121 22.8483 46.2191 22.8913L46.8254 22.6572L46.8417 22.6289L47.0913 22.4904L47.4196 22.3785L47.7464 22.1715L47.8742 22.1134L48.0911 22.0313L48.5369 21.9119L48.7093 21.8418L48.9828 21.7924L49.005 21.7865C49.0942 21.7626 49.2057 21.7327 49.2888 21.6865C49.4003 21.6567 49.5281 21.5985 49.6618 21.5627L49.745 21.5165L49.7836 21.4823L49.8282 21.4703L49.8847 21.503L50.0185 21.4671L50.1403 21.3867L50.2963 21.3449L50.5029 21.3134L50.5475 21.3015L50.6975 21.2374L50.8492 21.2684L50.9161 21.2505L50.9993 21.2043L51.1835 21.1788L51.2787 21.1772C51.5581 21.1502 51.793 21.135 51.9387 21.1438L52.0457 21.1867L52.1349 21.1628L52.2257 21.2341C52.3773 21.2651 52.5127 21.3244 52.6703 21.3777L52.7149 21.3658L52.7997 21.4148L52.9231 21.4295L53.0258 21.5453L53.1508 21.6551L53.1687 21.722L53.0648 21.8693L53.0398 22.0433L52.9347 22.4537L52.8814 22.6113L52.8874 22.6336C52.871 22.6619 52.8547 22.6901 52.8607 22.7124L52.8074 22.87L52.6856 22.9505L52.6378 22.7721L52.6644 22.6933L52.6525 22.6487C52.6509 22.5536 52.6879 22.4242 52.7086 22.3231L52.7233 22.1997L52.7718 21.7567C52.7659 21.7344 52.7376 21.7181 52.7257 21.6735L52.6289 21.58L52.3762 21.5282L52.162 21.4423L51.8037 21.4427C51.2835 21.4626 50.6593 21.6299 50.3027 21.7255L49.9683 21.815L49.7068 21.909C49.4616 21.9747 49.3621 22.0492 49.1452 22.1312C48.1823 22.4608 47.5152 22.7352 46.8927 22.9975L46.8541 23.0318L46.6654 23.1301L46.5719 23.2268L46.2092 23.3001C45.8645 23.4403 45.5258 23.6027 45.1365 23.7548L44.9761 23.8694L44.7978 23.9172L44.4085 24.0693L44.315 24.166C44.5558 24.1732 44.7803 24.2086 44.9542 24.2337L44.9988 24.2217L45.0836 24.2707L45.1342 24.281L45.2412 24.324L45.4494 24.3877L45.7946 24.6058L45.9033 24.7439L46.0864 24.9815L46.1716 25.3887ZM45.3569 26.5388C45.4695 26.2458 45.5658 25.9811 45.5952 25.7343L45.5594 25.6005L45.5948 25.376L45.5335 25.058L45.5275 25.0357L45.3563 24.8427L45.1868 24.7447L45.0009 24.6751L44.7927 24.6114L44.6187 24.5864L44.4002 24.5732L44.192 24.5096L44.0463 24.5008C44.024 24.5068 43.9957 24.4905 43.9957 24.4905C43.7538 24.7465 43.546 25.041 43.2164 25.416L43.0576 25.6258L42.9374 25.8014L42.2604 26.4845L42.0793 26.7003L41.9472 26.8312L41.579 27.2405L41.5627 27.2687L41.4751 27.3878L41.1885 27.6557L40.9688 27.9057L40.7654 28.1274L40.6779 28.2464L40.4255 28.553L40.4092 28.5812L40.2417 28.9367L40.1127 29.2579L40.0431 29.4438C40.0208 29.4498 40.0268 29.4721 40.0045 29.4781C39.8962 29.6982 39.8162 29.9347 39.7971 30.1309L39.8091 30.1755L39.8107 30.2706L39.796 30.394L39.8318 30.5278L39.8215 30.5783L39.8171 30.6512C39.8872 30.8235 39.9736 30.9676 40.1089 31.0269L40.1535 31.0149L40.3111 31.0683C40.3557 31.0563 40.4062 31.0667 40.4508 31.0547C41.1984 30.9022 41.3365 30.7935 42.0064 30.3512C42.2945 30.1784 42.5931 29.9551 42.8693 29.7378L42.8796 29.6872L42.9465 29.6693L43.1782 29.4639L43.3087 29.2378L43.6339 28.9356L43.7171 28.8894L43.7617 28.8775L44.3272 28.2242L44.3762 28.1394L44.4148 28.1052C44.5573 27.9237 44.6938 27.7199 44.8303 27.516L44.8733 27.409L44.9 27.3301L45.0039 27.1828L45.0958 26.991L45.1328 26.8616L45.216 26.8154L45.2367 26.7143L45.2856 26.6295L45.3123 26.5507L45.3569 26.5388ZM45.1747 23.3623L45.8135 23.0717C45.6336 23.0243 45.3737 23.2134 45.1747 23.3623ZM51.7995 25.8876L51.7669 25.9441L51.7462 26.0452L51.8827 25.8414L52.1351 25.5348L52.2063 25.4441L52.2449 25.4099L52.2895 25.3979L52.2835 25.3756L52.4439 25.261L52.3309 25.1957L52.4646 25.1599L52.7643 24.6734L52.8312 24.6555L53.0923 24.2033L53.4278 23.8506L53.7291 23.4593L53.7617 23.4027L53.784 23.3968L54.1179 22.9489L54.1343 22.9206L54.6389 22.3076L54.6449 22.3299L54.9745 21.9549L55.0561 21.8136L55.1393 21.7674L55.304 21.5799L55.3367 21.5234L55.359 21.5174L55.7331 21.1305L55.8636 20.9043L55.9735 20.7793L56.272 20.556L56.4575 20.2674L56.6668 20.068L57.0931 19.7865L57.2699 19.6436C57.402 19.5126 57.6337 19.3072 57.9099 19.0898L58.0138 18.9425L58.3732 18.679L58.7386 18.4377L58.7935 18.3752L58.9643 18.21L59.1856 18.0552L59.3237 17.9465L59.6075 17.8466C59.9566 17.6336 60.2953 17.4711 60.591 17.4158L60.7128 17.3354L60.8259 17.4006C60.9493 17.4154 61.0564 17.4583 61.1412 17.5073C61.1694 17.5236 61.1977 17.5399 61.2096 17.5845L61.4135 17.721L61.5242 18.3125L61.4 18.9192L61.1564 19.08L60.9112 19.1457L60.7357 19.0255L60.676 18.8026L60.5884 18.9216L60.5585 18.8102L60.5971 18.7759L60.5896 18.6585L60.5255 18.5084L60.4032 18.2306L60.2842 18.1431L59.9618 18.2772L59.6856 18.4946L59.5801 18.5467L59.3958 18.5722L59.1805 18.7494L59.0527 18.8075L58.2088 19.2248C57.8331 19.5166 57.5242 19.7904 57.4084 19.8932L57.2926 19.9959L57.211 20.1372L56.4448 20.8442L56.1642 21.1344L56.0663 21.304L55.7025 21.6404L55.609 21.7371L55.4502 21.9469L55.1755 22.2594L55.0836 22.4513L54.5506 23.048L53.8072 24.1073L53.7272 24.3437L53.601 24.497L53.3948 24.8867L53.1931 25.2036L53.1158 25.272L52.9674 25.4313L52.8532 25.6291L52.8428 25.6797L52.7063 25.8835L52.5654 26.1602L52.4838 26.3015L52.4126 26.3922L52.2494 26.6749L52.202 26.8548L52.1308 26.9456L52.0715 27.0809L51.9023 27.3412L51.6249 27.8217L51.5613 28.0299L51.502 28.1653L51.4443 28.3957L51.4355 28.5414L51.4252 28.592L51.4105 28.7154L51.3126 28.885L51.0276 29.248L50.8465 29.4638L50.6339 29.4729L50.4807 29.3468L50.4747 29.3245C50.4122 29.2696 50.372 29.2087 50.3704 29.1135L50.3465 29.0244L50.3791 28.9678L50.3743 28.6824L50.3417 28.739L50.2955 28.6558L50.3206 28.4818L50.3381 28.1904L50.4344 27.9257L50.4447 27.8752L50.4328 27.8306L50.504 27.7398L50.541 27.6104L50.5291 27.5659L50.6879 27.3561L50.7325 27.3441L50.7874 27.2816L50.9533 26.831L51.0496 26.5663L51.1105 26.5261L51.1623 26.2733L51.2064 25.9031L51.3266 25.7276L51.3354 25.5819L51.4969 25.2041L51.5519 25.1416L51.7222 24.6182L51.6983 24.529L51.9518 23.9594L52.0732 23.5207L52.1265 23.3631L52.1842 23.1326L52.1886 23.0597L52.2212 23.0032L52.3175 22.7385L52.2996 22.6716L52.3736 22.4129L52.5014 22.3548L52.5802 22.3814L52.6721 22.1895L52.6972 22.0156L52.6896 21.8982L52.6717 21.8313L52.5706 21.8106L52.6196 21.7258L52.6092 21.7764L52.6522 21.6693L52.6239 21.653L52.5646 21.7883C52.483 21.9296 52.364 21.8421 52.3342 21.7306L52.3668 21.6741L52.3548 21.6295L52.3592 21.5567L52.3962 21.4273L52.4066 21.3767L52.3441 21.3218L52.3278 21.3501L52.2044 21.3354L52.1864 21.2685L52.2191 21.212L52.3023 21.1658L52.2577 21.1777L52.2963 21.1435L52.2517 21.1554L52.2055 21.0722L52.2589 20.9146L52.3882 20.9516L52.4252 20.8222L52.4013 20.7331L52.4057 20.6602L52.3552 20.6499L52.4606 20.5977L52.4308 20.4863L52.4694 20.4521L52.514 20.4401L52.5792 20.3271L52.6907 20.2972L52.8527 20.2777L52.9701 20.2701L53.0473 20.2016L53.0354 20.157L53.1066 20.0663L53.2018 20.0647L53.2686 20.0468L53.3252 20.0794L53.3089 20.1077L53.2093 20.1821C53.4056 20.2012 53.5246 20.2888 53.5768 20.3942L53.605 20.4106L53.6007 20.4834C53.6723 20.7509 53.533 21.1227 53.3655 21.4782L53.3997 21.5168L53.2382 21.8945L53.1104 21.9527L52.9695 22.2293L52.9102 22.3647L52.8851 22.5386L52.8628 22.5446C52.7932 22.7305 52.7295 22.9387 52.6316 23.1083C52.6376 23.1306 52.6093 23.1142 52.6093 23.1142L52.5293 23.3507L52.5206 23.4964L52.4732 23.6763L52.3622 24.0644L52.2703 24.2563L52.2496 24.3574L52.1756 24.6161L52.0216 25.1113L51.9551 25.4875L51.8811 25.7462L51.7995 25.8876ZM66.4566 12.6905L66.1482 13.3226L65.8561 13.9265L65.8621 13.9488L65.7968 14.0618L65.6885 14.282L65.7065 14.3489L65.3475 14.9706L65.3387 15.1163L64.971 15.8838L64.8078 16.1665L64.7202 16.2855L64.6832 16.4148L64.569 16.6127L64.5646 16.6855L64.4624 16.928L64.3378 17.1764L64.3068 17.328L64.1941 17.621L63.976 17.9661L63.463 19.0831L63.3607 19.3255L63.3058 19.388L63.2063 19.4625L63.1558 19.4521L63.0224 19.8462L63.1458 19.8609L63.2067 19.8207L63.3524 19.8295L63.3867 19.8681L63.6128 19.9986L63.6709 20.1264L63.909 20.3015L64.0948 20.3712L64.2644 20.4691L64.2628 20.3739L64.3743 20.3441L64.465 20.4153L64.5482 20.3691L64.5689 20.268L64.8539 19.905L64.9208 19.8871L64.998 19.8186L65.0649 19.8007L65.1078 19.6936L65.1568 19.6088L65.2014 19.5969L65.2607 19.4615L65.3825 19.3811L65.4255 19.274L65.5353 19.149L65.6674 19.018L66.0786 18.5017L66.1542 18.3381L66.1988 18.3262L66.5968 18.0284L66.916 17.704L66.9694 17.5463L67.0303 17.5061L67.1194 17.4822L67.1521 17.4257L67.4995 17.1176L67.5664 17.0997L67.5887 17.0937L67.6436 17.0312L68.1471 16.6812L68.1798 16.6247L68.3016 16.5443L68.4679 16.4519L68.9878 16.0737L69.0873 15.9993L69.1542 15.9814L69.2047 15.9917L69.3771 15.9217C69.5434 15.8293 69.7158 15.7592 69.8941 15.7114L70.0991 15.5848L70.484 15.5056L70.8275 15.6286L71.0743 15.658L71.2173 15.8347L71.2515 15.8733L71.3021 15.8837L71.4151 15.9489L71.5015 16.093L71.5238 16.0871L71.5166 16.3279L71.2969 16.5779L70.9267 16.5337L70.8822 16.5457L70.5876 16.3379L70.3436 16.1405L70.2365 16.0975L70.1147 16.1779L70.0924 16.1839L69.8798 16.1931L69.1725 16.4065L68.8533 16.7309L68.7701 16.7771L68.7641 16.7548L68.675 16.7787L68.5026 16.8488L68.4357 16.8667L68.1981 17.0498L68.0823 17.1526L67.6767 17.3329C67.2846 17.653 66.8882 18.0459 66.52 18.4551L66.4874 18.5116L66.4265 18.5519L66.333 18.6486L66.3226 18.6991L66.278 18.7111C66.284 18.7334 66.2617 18.7394 66.2454 18.7676L66.2514 18.7899L66.0273 19.1128L65.9218 19.1649L65.398 19.9742L65.1903 20.2688L65.0494 20.5454L64.7688 20.8356L65.2835 21.1517L65.3966 21.2169L65.7298 21.3905L65.9216 21.4824L66.5048 21.8756L66.6282 21.8903L67.9136 22.7644L68.1158 22.8057L68.2973 22.9482L68.3984 22.9689L68.7213 23.193L68.824 23.3088L68.9088 23.3578L69.4295 23.6961L69.5202 23.7673L69.6333 23.8326L69.6854 23.9381L69.8148 23.9751L69.9561 24.0567L69.9741 24.1235L70.1377 24.1992L70.3295 24.2911L70.4426 24.3564L70.6464 24.4929L70.8562 24.6517L71.6432 25.1814L71.8514 25.2451L71.8992 25.4234L71.8219 25.4919L71.6882 25.5277L71.6034 25.4788L71.4947 25.3407L71.3936 25.32L71.404 25.2694L71.3088 25.271L71.0099 25.1361L70.9131 25.0426L70.1767 24.5232L69.8495 24.3719L69.5625 24.2816L69.369 24.0945L69.1815 23.9297L68.6206 23.5305L68.4124 23.4669L68.0211 23.1656L67.8352 23.0959L67.3711 22.7903L67.0661 22.6331L66.3253 22.1865L65.4209 21.6643L65.1502 21.5457L65.1279 21.5517L64.817 21.3722L64.5181 21.2373L64.4615 21.2047L64.2478 21.477L64.1499 21.6465L63.8649 22.0096L63.7507 22.2074L63.3765 22.5944L63.209 22.9499L62.9045 23.1509C62.7783 23.3042 62.6522 23.4574 62.52 23.5884C62.4814 23.6226 62.0854 24.3738 61.5835 24.8189L61.5954 24.8634L61.5405 24.9259L61.4872 25.0836L61.1696 25.5032L60.8901 25.5302L60.6314 25.4562L60.551 25.3344L60.5418 25.1219L60.4972 25.1338L60.4407 25.1012L60.5299 25.0773L60.5506 24.9762L60.5593 24.8305L60.5887 24.5837L60.611 24.5777L60.5796 24.3711L60.7945 23.8357L60.8577 23.2693L61.003 22.9198L61.1128 22.7948L61.2641 22.4676L61.3827 22.1969L61.4953 21.9039L61.4535 21.7479L61.6791 21.5202L61.7444 21.4071L61.7472 21.2391L61.7798 21.1826L61.857 21.1141L61.9756 20.8434L62.0393 20.6353L62.0867 20.4553L61.9796 20.4124L61.734 20.1198L61.7411 19.879L61.8271 19.6648L61.9548 19.6067L62.0663 19.5768L62.0543 19.5322L62.1212 19.5143L62.1109 19.5649L62.1674 19.5975L62.2968 19.6345L62.4484 19.6656L63.08 18.2779L63.6718 17.1876L64.1789 16.0483L64.6417 15.2792L64.8435 14.9623L64.8658 14.9564L65.4353 13.872L65.4767 13.6698L65.8461 12.9974L65.9734 12.5811L66.4597 11.5429L66.8553 10.4335L67.0245 10.1731L67.1251 9.83558L67.5685 8.90449L67.7758 8.25166L67.9537 7.84563L68.1017 7.32814L68.1551 7.17051L68.1312 7.08134L68.0866 7.09329L68.0687 7.02642L68.1133 7.01447L68.0117 6.63553L67.9711 6.21638L67.9516 6.05438L68.1056 5.55918L68.4515 5.15592L68.6863 5.14078L68.9331 5.17021L68.963 5.28166C69.0462 5.23548 69.125 5.26214 69.1548 5.3736C69.1612 5.75414 68.9833 6.16017 68.8441 6.53197L68.8047 7.18757L68.6192 7.47617L68.5599 7.61152L68.419 7.88818L68.3701 7.97297L68.2101 8.44587L68.1198 8.73288C68.0561 8.94107 67.9642 9.13294 67.8945 9.31883L67.9391 9.30689L67.9511 9.35147L67.9065 9.36342L67.8902 9.39168L67.8858 9.46452L67.8711 9.58792L67.7465 9.83632L67.7083 10.2288L67.6267 10.3701L67.5718 10.4326L67.4739 10.6022L67.4146 10.7375L67.2411 11.0707L67.2204 11.1718L67.2041 11.2001L67.1655 11.2343L66.9756 11.5958L66.9549 11.6969L66.8244 11.923L66.7651 12.0583L66.6672 12.2279L66.5382 12.5492L66.4566 12.6905ZM62.356 23.1545L62.5594 22.9328L62.7122 22.7007L62.7552 22.5936L62.914 22.3838L62.9956 22.2425L63.3088 21.8958L63.3518 21.7887L64.0822 20.948L64.0985 20.9197L63.8887 20.7609L63.493 20.5324L63.3696 20.5177L63.2625 20.4747L63.1734 20.4986L63.163 20.5492L63.1407 20.5552L63.1005 20.4943L62.8167 20.5942L62.7944 20.6002L62.6432 20.9274L62.4772 21.378L62.0399 22.3314L61.938 22.932L61.7454 23.4615L61.7486 23.6517L61.8616 23.717L62.356 23.1545ZM81.685 13.5555L81.6687 13.5837L81.6807 13.6283L81.7209 13.6892L81.6942 13.768L81.6958 13.8632L81.7643 13.9404L81.7866 13.9344L81.8033 14.2644L81.6549 14.4236L81.5613 14.5204L81.3309 14.4627L80.9487 14.374L80.7807 14.3712L80.7123 14.294L80.6231 14.3179L80.6378 14.1945L80.59 14.0161L80.5988 13.8704L80.5227 13.6758L80.463 13.4529L80.4065 13.4203L80.3603 13.3371L80.1863 13.312L80.0749 13.3419L79.8787 13.3228L79.5829 13.3781C78.9098 13.6302 79.1518 13.3742 78.3868 13.8181L78.1551 14.0235L78.06 14.0251L77.4271 14.338L77.0187 14.6864L76.6816 14.9439L76.4723 15.1434L76.3118 15.258L76.0623 15.3966L75.7311 15.6764L75.6316 15.7509L75.1074 16.2019L74.8328 16.5144L74.8224 16.565L74.5195 16.8612L74.4157 17.0084L74.3444 17.0992L74.2346 17.2242L74.1367 17.3938L74.0567 17.6302L73.9082 17.7895L73.8266 17.9308L73.6232 18.1525C73.5313 18.3444 73.5003 18.4961 73.5138 18.6358C73.5067 18.8766 73.5317 18.7026 73.679 18.8065L73.7757 18.9001L73.9557 18.9474L74.1149 19.0959L74.2116 19.1894L74.2339 19.1834C74.3916 19.2368 74.5373 19.2455 74.6666 19.2825L74.9863 19.3163L74.9982 19.3609L75.419 19.4154L75.6315 19.4062L75.7669 19.4655L75.7892 19.4596L75.8174 19.4759L76.4567 19.5435L76.7019 19.4778L76.8922 19.4746L77.1004 19.5383L77.1167 19.51L77.1732 19.5426L77.2803 19.5856L77.7516 19.6505L77.9582 19.619L78.1098 19.65L78.5557 19.5306L78.685 19.5676L79.009 19.5285L79.4342 19.5102L79.5695 19.5695L79.9843 19.6017L80.1778 19.7888L80.2761 19.9774L80.2657 20.028L80.2673 20.1231L80.208 20.2585L80.0878 20.434L79.8116 20.6514L79.7002 20.6812L79.5903 20.8062L79.3244 20.9731L79.2516 20.9687L79.0004 21.0121L78.5013 21.2892L77.5384 21.6189L77.2486 21.6965L76.3689 21.98L76.1015 22.0517L75.8177 22.1516L75.4327 22.2308L75.1832 22.3694L74.8667 22.5259L74.2573 22.5697L73.9007 22.6653L73.6837 22.7473L73.3004 22.9217L73.1667 22.9575L72.8725 23.108L72.7388 23.1438L72.3228 23.3747L72.0183 23.5758L71.834 23.6013L71.5948 23.6893L71.0288 23.9843L70.9679 24.0245L70.7347 24.1348L70.6841 24.1244L70.6678 24.1527L70.5786 24.1766L70.5014 24.245L70.4182 24.2912L70.3617 24.2586L70.3497 24.214L70.3275 24.22L70.3438 24.1917L70.3155 24.1754L70.3481 24.1189L70.3867 24.0846L70.409 24.0787L70.4743 23.9656L71.1072 23.6527L71.3345 23.5201L71.385 23.5304L71.6792 23.38L71.8901 23.2756L71.957 23.2577L72.5095 22.823L72.7324 22.7633L72.8988 22.6709L73.2451 22.6259L73.4843 22.5379L73.6507 22.4456L74.1068 22.2755L74.4738 22.1294L74.8022 22.0175L75.2584 21.8475L75.3312 21.8519L75.5987 21.7802L75.7368 21.6716L75.8097 21.6759C75.9211 21.6461 76.0266 21.5939 76.1603 21.5581L76.3371 21.4152L76.8378 21.2332L77.1928 21.0425L77.8556 20.841L77.9284 20.8454L78.0502 20.765L78.2954 20.6993L78.4662 20.5341L78.8272 20.3657L78.7038 20.3509L78.619 20.302L78.3619 20.3231L78.0542 20.3339L77.684 20.2897L77.6438 20.2288L77.5486 20.2304L77.3257 20.2902L77.1502 20.17L76.5332 20.0964L76.4321 20.0757L76.2581 20.0506L75.6292 19.9325L75.6069 19.9384L75.5786 19.9221C75.1133 19.8796 74.7045 19.8696 74.5409 19.794L74.5186 19.8L74.5126 19.7777L74.361 19.7467L74.2435 19.7542L73.9462 19.7145L73.8853 19.7547L73.7826 19.6388L73.6711 19.6687L73.4064 19.5724L73.0314 19.2428L72.9641 18.9025L73.0103 18.9857C73.0087 18.8906 73.0294 18.7895 73.0724 18.6824C73.0931 18.5813 73.1643 18.4905 73.185 18.3894L73.1567 18.3731L73.333 17.8719L73.4413 17.6518L73.4859 17.6398L73.5332 17.4599L73.6431 17.3349L73.7127 17.149L73.8226 17.024L73.8878 16.911L74.0928 16.7844L74.1151 16.7784L74.1581 16.6713L74.2739 16.5686L74.2962 16.5626L74.6703 16.1757L74.8411 16.0105L74.9939 15.7784L75.0489 15.7159L75.1527 15.5686L75.224 15.4779L75.2387 15.3545L75.3159 15.286L75.4719 15.2442L75.622 15.1801L76.032 14.9269L76.3098 14.8046L76.4376 14.7465L76.4985 14.7063L76.8476 14.4933L76.9025 14.4308C77.2472 14.2907 77.2619 14.1673 77.3614 14.0928L77.4876 13.9396L77.5767 13.9157L77.8279 13.8723L77.9274 13.7978L78.0329 13.7457C78.0775 13.7337 78.1221 13.7218 78.183 13.6816C78.3716 13.5832 78.6212 13.4447 78.905 13.3448L79.0268 13.2643L79.1872 13.1497L79.2644 13.0812L79.5765 12.9976L79.7206 12.9112L80.1174 12.8765L80.2854 12.8793L80.3523 12.8614L80.3806 12.8777L80.6154 12.8626L80.6763 12.8224L80.99 12.8339L81.2547 12.9302L81.3455 13.0014L81.4139 13.0786C81.4884 13.1781 81.5465 13.3059 81.6329 13.45L81.6775 13.4381L81.685 13.5555Z" fill="#65CA75"/>
</svg>
