<svg width="123" height="67" viewBox="0 0 123 67" fill="none" xmlns="http://www.w3.org/2000/svg">
<path d="M13.1361 33.303L13.2133 33.2345L13.675 32.7286L13.7076 32.672C13.7685 32.6318 13.8235 32.5693 13.8561 32.5128L13.9659 32.3878L14.0877 32.3074L14.3504 31.9503L14.3831 31.8938L14.444 31.8536L14.5033 31.7182L14.6191 31.6155L14.7066 31.4965L14.8225 31.3938L14.9709 31.2345L14.9753 31.1617L15.1297 31.0248L15.4402 30.846L15.6317 30.5797L15.7594 30.5216L15.8812 30.4411L15.8693 30.3966L15.8916 30.3906L15.9035 30.4352L15.9927 30.4113L16.0209 30.4276L16.1145 30.3309L17.307 29.3424L17.3396 29.2859L17.2178 29.3663L17.1999 29.2994L17.3097 29.1744L17.4435 29.1386L17.4674 29.2277L17.7703 28.9316L17.9959 28.7038L18.0449 28.6191L18.232 28.4256L18.7594 28.1648L19.0905 27.885L19.2852 27.8089L19.3787 27.7122L19.4396 27.672L19.4277 27.6274L19.4499 27.6214L19.4619 27.666C19.6163 27.529 19.8436 27.3965 20.0263 27.2758L20.0144 27.2313L20.0677 27.0736L20.2683 27.0199L20.5461 26.8977C21.0719 26.5417 21.5814 26.2141 22.1355 25.8745L22.4384 25.5783L22.8826 25.3637L23.7188 24.8291L24.2952 24.4835L24.579 24.3836L24.9786 24.1809L25.469 24.0495L25.7246 23.9333L26.0693 23.7931L26.2922 23.7334C26.787 23.5292 27.3323 23.3353 27.839 23.1756L27.989 23.1115L28.038 23.0267L28.0663 23.043L28.2119 23.0518L28.6355 22.9383L28.6741 22.9041L28.6964 22.8981L28.7796 22.8519L29.0128 22.7416L29.4037 22.6847L29.426 22.6787L29.5434 22.6711L29.9327 22.519L30.0947 22.4995L30.1898 22.4979L30.273 22.4517L30.2893 22.4235L30.3339 22.4115L30.3073 22.4903L30.3741 22.4724C30.8705 22.3633 31.3908 22.3434 31.8398 22.4142L31.9126 22.4186L32.0344 22.3381L32.1073 22.3425L32.2382 22.4746L32.3959 22.528L32.7796 22.7118L33.147 22.924L33.2111 23.074L33.229 23.1409C33.372 23.3176 33.4986 23.5226 33.5806 23.7396L33.7757 24.0218L33.8294 24.2224C33.7701 24.3577 33.7478 24.3637 33.7359 24.3191L33.6706 24.4322L33.5934 24.5006C33.6069 24.6403 33.558 24.7251 33.515 24.8322L33.4987 24.8605L33.5926 25.122L33.5365 25.4476L33.3336 26.0276L32.9029 26.3819L32.7751 26.44L32.7349 26.3791L32.6692 26.1339L32.7226 25.9763C32.7166 25.954 32.678 25.9882 32.672 25.966L32.6171 26.0285L32.5399 26.0969L32.473 26.1148C32.4567 26.1431 32.4567 26.1431 32.4507 26.1208L32.3779 26.1164L32.2529 26.0066L32.2111 25.8506L32.2063 25.5652L32.3129 25.2499L32.2934 25.0879L32.5087 24.9107L32.5517 24.8036L32.6452 24.7069L32.6213 24.6177L32.6464 24.4438L32.5943 24.3383L32.603 24.1926L32.7248 24.1122L32.7694 24.1003L32.7574 24.0557L32.6667 23.9844L32.5596 23.9415L32.5031 23.9088L32.4911 23.8642L32.4569 23.8256L32.4433 23.6859L32.3776 23.4407L32.3494 23.4244L32.2705 23.3977L32.1336 23.2433L31.9477 23.1737L31.8287 23.0861L31.8048 22.9969L31.7037 22.9762C31.3052 22.9158 30.8638 22.9624 30.4343 23.0536L30.3674 23.0715L30.2902 23.14L29.9395 23.2578L29.8281 23.2877L29.5144 23.2762L29.4639 23.2658C28.8337 23.4108 28.3211 23.5481 27.8084 23.6855L27.7861 23.6915L27.0923 24.0446L26.8531 24.1326L26.6481 24.2592L25.8472 24.5694L25.1208 24.979L24.7701 25.0969L24.2591 25.3294L24.0807 25.3772L23.6425 25.6141L23.4761 25.7064L22.7927 26.009L22.6323 26.1237L22.4392 26.2948L22.1212 26.3562L21.7928 26.468C21.7765 26.4963 21.7319 26.5083 21.7096 26.5142L20.8733 27.0489C20.5302 27.2842 20.1768 27.57 19.5857 28.039L19.5694 28.0672L19.2991 28.3069L19.1491 28.371L19.1268 28.3769L18.5966 28.8057L18.564 28.8622L18.5819 28.9291L18.515 28.947L18.4971 28.8801L17.2616 29.9757L16.7613 30.5159L16.546 30.6931L16.3366 30.8925L15.6477 31.531L14.9989 32.2305L14.7227 32.4478L14.3159 32.8913L14.1169 33.0402L13.8036 33.3869L13.5986 33.5135L13.082 34.082L12.9292 34.3141L12.7823 34.5684L12.5001 34.7635L12.4838 34.7918L11.519 36.0059L11.476 36.113L11.4108 36.2261L11.0931 36.6456L10.9566 36.8495L10.8082 37.0087L10.7755 37.0652L10.5678 37.3598L10.5308 37.4892L10.1419 37.9995L10.0766 38.1126C9.94012 38.3164 9.77097 38.5767 9.60779 38.8594L9.5278 39.0958L9.35705 39.261C9.04701 39.798 8.6717 40.4481 8.33063 41.1367L8.17342 41.4417L7.80291 42.3771L7.7273 42.5407L7.64571 42.6821L7.4308 43.2175L7.14028 43.9165L6.99065 44.3388L6.79206 44.846L6.72839 45.0541L6.52981 45.5613C6.41441 46.0222 6.31533 46.4549 6.26681 46.898L6.24655 47.3573L6.20954 47.4867L6.18447 47.6607L6.16816 47.6889L6.1881 48.2092L6.22554 48.4381L6.22714 48.5332L6.26298 48.6669L6.27972 48.9969C6.29327 49.1366 6.35737 49.2867 6.39321 49.4204L6.44536 49.5259L6.50509 49.7488L6.60342 49.9375L6.63926 50.0712C6.73162 50.2376 6.82399 50.404 6.93267 50.5421L6.9892 50.5748L7.06961 50.6966L7.07559 50.7188L7.22288 50.8227L7.39406 51.0158L7.406 51.0604L7.58753 51.2028L7.68863 51.2235L8.00113 51.4982C8.02342 51.4922 8.05169 51.5085 8.05766 51.5308L8.26425 51.4993L8.33272 51.5765L8.39959 51.5586L8.45174 51.6641L8.54848 51.7576L8.57674 51.774L8.73438 51.8273L8.8518 51.8197L9.10137 51.6812L9.20845 51.7242L9.30359 51.7226L9.38838 51.7715L9.55956 51.9645L9.70088 52.0461L9.82865 51.988L10.1706 52.0158L10.2673 52.1094L10.3298 52.1643L10.3804 52.1747L10.9572 52.1873L11.1176 52.0727L11.5248 51.9875L11.6884 52.0631L11.8074 52.1506L13.3144 51.8902L13.4868 51.8201L13.5091 51.8141L13.9445 51.7452L14.5583 51.6286L14.915 51.533L15.1721 51.5119L15.2004 51.5282L15.2895 51.5043L15.407 51.4967L15.719 51.4131L17.2718 50.8776L17.355 50.8314L17.4887 50.7956C17.6165 50.7374 17.7279 50.7076 17.8394 50.6777L18.0324 50.5065L18.3994 50.3604L18.5212 50.28L18.8795 50.2796L19.0029 50.2943L19.1366 50.2585C19.826 49.9782 20.5035 49.6533 21.1424 49.3627L21.3028 49.248L21.5806 49.1258L21.7796 48.9769L22.6012 48.5656L23.3988 48.0652L23.693 47.9147L24.4476 47.5214L24.8294 47.2519L25.0523 47.1921L25.6835 46.7841L25.9033 46.5341L26.3757 46.3358L26.5035 46.2777L26.7145 46.1734L27.5464 45.7115L27.5893 45.6045L28.1494 45.2872L28.2935 45.2008L28.3424 45.116L28.4598 45.1084L28.8029 44.8731L29.002 44.7242L29.1847 44.6036L29.357 44.5335L29.556 44.3846L29.5783 44.3787L29.6778 44.3042L30.2259 43.9424L30.4576 43.7369L30.6017 43.6505L30.7175 43.5478L30.9893 43.4033L32.5548 42.291L32.8087 42.0796L33.036 41.9471L33.0523 41.9188C33.4014 41.7058 33.694 41.4602 34.0148 41.2309L34.0697 41.1684L34.3459 40.951L34.4009 40.8885L34.4172 40.8602L34.5509 40.8244L34.6608 40.6994L34.6994 40.6652L34.8331 40.6293L34.8853 40.7348L34.9151 40.8463L34.8662 40.9311L34.6879 40.9788L34.4057 41.1739L34.3241 41.3152L33.8042 41.6934L33.7879 41.7217L33.6275 41.8363L33.0468 42.2548L33.0528 42.277L32.9978 42.3395L32.7944 42.5613L32.5345 42.7504L32.3578 42.8933L32.2909 42.9112L32.031 43.1003L31.9478 43.1465L31.7325 43.3236L31.6999 43.3802L31.6776 43.3861C31.5008 43.5291 31.3404 43.6437 31.2083 43.7747L31.0702 43.8834L30.9114 44.0932L30.745 44.1855L29.3726 45.1266L29.3177 45.1891L28.7696 45.551L28.6135 45.5928L28.0654 45.9547L27.9882 46.0232C27.9436 46.0351 27.9436 46.0351 27.905 46.0694L27.6674 46.2525L27.4401 46.3851L27.3749 46.4981L27.1758 46.647L26.736 46.7887L25.5833 47.4799L25.561 47.4858C25.3783 47.6065 25.1228 47.7227 24.9401 47.8434L24.8302 47.9684L24.7574 47.964L24.5078 48.1025L24.4409 48.1204C24.4186 48.1264 24.4246 48.1487 24.4023 48.1547L24.3132 48.1786L24.2968 48.2068L24.0087 48.3796L23.7428 48.5464L23.2942 48.8339L23.2154 48.8072L23.1931 48.8132L23.1441 48.898L22.9049 48.9859L22.7891 49.0887L22.5781 49.193L22.5411 49.3223L22.4818 49.4577L22.3807 49.437L22.2084 49.5071L21.9691 49.5951L21.7522 49.6771L21.2395 49.8144L20.5843 50.1333L20.6023 50.2002L20.4805 50.2806L20.3571 50.2659L20.3511 50.2436C20.3065 50.2556 20.2619 50.2675 20.201 50.3077L20.1787 50.3137L19.834 50.4538L19.7345 50.5283L19.6187 50.631L19.4197 50.7799L18.8342 50.9129L18.4731 51.0813L18.3557 51.0889L18.1165 51.1769L18.1627 51.26L17.6946 51.3855C17.6723 51.3914 17.6277 51.4034 17.6114 51.4317L17.4733 51.5403L17.2667 51.5718L16.7719 51.776L16.7556 51.8043L16.7333 51.8103C16.0439 52.0906 15.4317 52.3024 15.4317 52.3024L15.4094 52.3084L15.2653 52.3948L14.8776 52.642L14.4601 52.7778L14.2045 52.894L14.0692 52.8347L13.9578 52.8646L13.4554 52.9514L13.1624 52.8388L13.0064 52.8806L12.2736 52.9097L12.0937 52.8623L11.7131 52.8687L11.4962 52.9508L11.2152 52.8827L11.0352 52.8354C10.9906 52.8473 10.9624 52.831 10.9401 52.837L10.7172 52.8967L10.5715 52.888L10.4823 52.9118L10.4899 53.0293L10.2447 53.095L10.224 53.1961L9.96688 53.2172L9.91035 53.1846L9.74237 53.1818L9.64724 53.1834L9.59668 53.173L9.53578 53.2133L9.21614 53.1794L8.88893 53.0282L8.68074 52.9645L8.65685 52.8754L8.67914 52.8694L8.36387 52.7628L8.32526 52.797L8.15408 52.6039L8.01116 52.4272L7.9813 52.3158L7.68075 52.0857L7.65686 51.9966L7.67915 51.9906L7.47533 51.8541L7.4188 51.8214L7.31012 51.6833L7.30415 51.661L7.21936 51.6121L7.14054 51.5854L7.09436 51.5022L7.06013 51.4636C6.90089 51.3151 6.78624 51.1547 6.67158 50.9943L6.56887 50.8785L6.51075 50.7507L6.33797 50.4626L6.30373 50.424L6.27067 50.1222C6.09308 49.5486 5.9764 48.9349 5.73952 48.4966L5.71563 48.4075L5.64556 48.2351L5.64993 48.1623C5.60652 47.9111 5.63595 47.6643 5.65942 47.3952L5.65344 47.3729L5.65782 47.3001L5.65462 47.1098L5.7346 46.8733C5.83368 46.4407 5.96103 46.0243 5.98726 45.5872C6.00198 45.4638 6.01072 45.3181 6.04773 45.1888L6.0521 45.1159L6.20451 44.5256L6.2252 44.4245L6.60445 43.3433L6.91886 42.7335L7.26591 42.0671L7.77293 40.9278L7.83223 40.7925L8.1363 40.2332L8.33969 40.0114L8.60077 39.5592L8.7134 39.2663L8.7118 39.1711L8.77707 39.0581L8.97448 38.814L9.09905 38.5656L9.5086 37.9542L9.93446 37.3145L10.1112 37.1716L10.4778 36.6672L10.4658 36.6226L10.4762 36.5721L10.598 36.4916L10.6529 36.4291L10.6111 36.2731L10.666 36.2106L10.8487 36.09L11.2435 35.6019L11.5834 35.1764L11.6487 35.0633L11.8521 34.8416L11.9337 34.7003L12.2083 34.3878L12.5259 33.9682L12.8511 33.6661L13.1198 33.3313L13.1361 33.303ZM41.1611 34.2511C41.1686 34.3686 41.1762 34.486 41.1615 34.6094L41.1201 34.8116C41.1098 34.8622 41.15 34.9231 41.1456 34.9959L41.0716 35.2546L40.9753 35.5194L40.8105 35.7069L40.6473 35.9895L40.588 36.1248L40.5064 36.2661L40.364 36.4477L40.3253 36.4819C40.036 36.9178 39.6515 37.3553 39.2611 37.7705L39.273 37.8151L39.2061 37.833L39.0027 38.0547L39.0087 38.077L38.9761 38.1336L38.8869 38.1575C38.8706 38.1857 38.8706 38.1857 38.8483 38.1917L38.8662 38.2586L38.7771 38.2824L38.6346 38.464L38.6123 38.4699L38.5307 38.6113L38.3866 38.6977L38.3273 38.833L38.2011 38.9863L38.1179 39.0324L37.8787 39.1204L37.8015 39.1889L37.6737 39.247L37.6292 39.259C37.3083 39.4883 37.0321 39.7056 36.7439 39.8784L36.6727 39.9692L36.6118 40.0094L36.5525 40.1447L36.4916 40.185L36.3236 40.1822L36.1676 40.224L35.7381 40.3152L35.3249 40.3781L35.3189 40.3558C35.2966 40.3618 35.258 40.396 35.2357 40.402C35.096 40.4155 35.0009 40.4171 34.8775 40.4024C34.7704 40.3594 34.2426 40.262 34.1785 40.1119L34.1247 39.9113L34.0638 39.9515L34.0057 39.8237L34.0542 39.3807L34.1087 38.9599L34.1621 38.8023L34.3579 38.4631L34.484 38.3099L34.5107 38.2311L34.818 37.862L35.0627 37.4381L35.0997 37.3087L35.165 37.1957L35.5539 36.6853L35.6577 36.538L35.7632 36.4859L35.7959 36.4294L35.9443 36.2701L35.971 36.1913L36.0052 36.2299L36.4327 35.6853L36.5143 35.544L36.5752 35.5038L36.74 35.3163L36.8482 35.0962L37.001 34.8641L37.2832 34.669L37.5073 34.3462L37.6618 34.2092L37.8325 34.044C38.0196 33.8506 38.1784 33.6408 38.3491 33.4756L38.0251 33.5146C37.8751 33.5787 37.7473 33.6368 37.6135 33.6727L37.5526 33.7129L37.5363 33.7411L37.4635 33.7368L37.196 33.8084C37.0014 33.8845 36.7681 33.9948 36.5229 34.0605L36.5006 34.0664L35.9939 34.2261L35.7085 34.2309L35.5509 34.1776L35.4541 34.084L35.4346 33.922L35.5413 33.6068L35.7017 33.4921L35.9126 33.3878L36.1296 33.3058L36.3258 33.3249L36.6841 33.3244C37.0184 33.2349 37.381 33.1616 37.7779 33.1269L38.0111 33.0166L38.3738 32.9434L38.7794 32.763L38.8522 32.7674L39.2192 32.6213C39.2801 32.5811 39.335 32.5186 39.39 32.4561L39.5547 32.2686L39.7092 32.1316L39.7701 32.0914L39.8636 31.9947L40.036 31.9246L40.2306 31.8486C40.3807 31.7845 40.5307 31.7204 40.6927 31.7008L40.8428 31.6367L40.9276 31.6857C41.0227 31.6841 41.1015 31.7108 41.2086 31.7537L41.8148 31.5196L41.8312 31.4914L42.0807 31.3528L42.4091 31.2409L42.7359 31.0339L42.8637 30.9758L43.0806 30.8938L43.5264 30.7743L43.6988 30.7042L43.9722 30.6549L43.9945 30.6489C44.0837 30.625 44.1951 30.5951 44.2783 30.549C44.3898 30.5191 44.5175 30.461 44.6513 30.4251L44.7345 30.3789L44.7731 30.3447L44.8177 30.3328L44.8742 30.3654L45.0079 30.3296L45.1297 30.2491L45.2858 30.2073L45.4924 30.1759L45.5369 30.1639L45.687 30.0998L45.8387 30.1309L45.9055 30.1129L45.9887 30.0668L46.173 30.0413L46.2682 30.0397C46.5476 30.0126 46.7824 29.9974 46.9281 30.0062L47.0352 30.0492L47.1244 30.0253L47.2151 30.0965C47.3668 30.1275 47.5021 30.1868 47.6598 30.2402L47.7044 30.2282L47.7891 30.2772L47.9125 30.2919L48.0153 30.4077L48.1403 30.5176L48.1582 30.5844L48.0543 30.7317L48.0292 30.9057L47.9242 31.3161L47.8709 31.4737L47.8768 31.496C47.8605 31.5243 47.8442 31.5525 47.8502 31.5748L47.7968 31.7325L47.675 31.8129L47.6273 31.6346L47.6539 31.5557L47.642 31.5112C47.6404 31.416 47.6774 31.2867 47.6981 31.1855L47.7128 31.0621L47.7613 30.6191C47.7553 30.5968 47.7271 30.5805 47.7151 30.5359L47.6184 30.4424L47.3656 30.3907L47.1515 30.3047L46.7932 30.3051C46.273 30.3251 45.6488 30.4923 45.2922 30.5879L44.9578 30.6775L44.6963 30.7714C44.4511 30.8371 44.3516 30.9116 44.1347 30.9936C43.1718 31.3233 42.5047 31.5976 41.8821 31.86L41.8435 31.8942L41.6549 31.9925L41.5613 32.0893L41.1987 32.1625C40.854 32.3027 40.5153 32.4651 40.126 32.6172L39.9656 32.7319L39.7873 32.7796L39.398 32.9317L39.3044 33.0285C39.5453 33.0356 39.7698 33.071 39.9437 33.0961L39.9883 33.0841L40.0731 33.1331L40.1236 33.1434L40.2307 33.1864L40.4389 33.2501L40.784 33.4682L40.8927 33.6063L41.0758 33.8439L41.1611 34.2511ZM40.3463 35.4012C40.459 35.1082 40.5553 34.8435 40.5847 34.5967L40.5489 34.463L40.5843 34.2384L40.523 33.9204L40.517 33.8981L40.3458 33.7051L40.1762 33.6072L39.9903 33.5375L39.7821 33.4739L39.6082 33.4488L39.3897 33.4357L39.1815 33.372L39.0358 33.3633C39.0135 33.3692 38.9852 33.3529 38.9852 33.3529C38.7432 33.6089 38.5355 33.9035 38.2059 34.2785L38.0471 34.4882L37.9269 34.6638L37.2499 35.3469L37.0688 35.5627L36.9366 35.6937L36.5685 36.1029L36.5521 36.1312L36.4646 36.2502L36.178 36.5181L35.9583 36.7681L35.7549 36.9898L35.6674 37.1089L35.415 37.4154L35.3987 37.4436L35.2311 37.7991L35.1022 38.1204L35.0326 38.3063C35.0103 38.3122 35.0162 38.3345 34.9939 38.3405C34.8857 38.5606 34.8057 38.7971 34.7866 38.9933L34.7986 39.0379L34.8002 39.133L34.7854 39.2564L34.8213 39.3902L34.8109 39.4407L34.8066 39.5136C34.8766 39.6859 34.963 39.83 35.0984 39.8893L35.143 39.8774L35.3006 39.9307C35.3452 39.9188 35.3957 39.9291 35.4403 39.9172C36.1878 39.7646 36.326 39.656 36.9958 39.2137C37.284 39.0409 37.5825 38.8175 37.8588 38.6002L37.8691 38.5496L37.936 38.5317L38.1676 38.3263L38.2982 38.1002L38.6234 37.798L38.7066 37.7518L38.7511 37.7399L39.3167 37.0866L39.3657 37.0019L39.4043 36.9676C39.5468 36.7861 39.6833 36.5823 39.8198 36.3785L39.8628 36.2714L39.8894 36.1926L39.9933 36.0453L40.0853 35.8534L40.1223 35.724L40.2055 35.6778L40.2262 35.5767L40.2751 35.492L40.3018 35.4131L40.3463 35.4012ZM40.1642 32.2247L40.803 31.9341C40.6231 31.8867 40.3632 32.0758 40.1642 32.2247ZM58.6416 33.4854L58.2878 33.4129L58.2014 33.2688C58.1731 33.2525 58.1448 33.2362 58.1389 33.2139C58.0481 33.1427 58.0123 33.0089 57.9928 32.8469L57.9748 32.7801L57.9597 32.5452L58.0038 32.175L58.0556 31.9222L58.1312 31.7586L58.2721 31.482L58.4054 31.0879L58.524 30.8172L58.5507 30.7384L58.549 30.6432L58.678 30.322L58.709 30.1703L58.7237 30.0469L58.6999 29.9578L58.6449 30.0203L58.6003 30.0322L58.4459 30.1692L58.3627 30.2154L57.9114 30.6708L57.7749 30.8746L57.6606 31.0724L57.5165 31.1588L57.3784 31.2675L56.9983 31.6321L56.945 31.7898L56.7253 32.0398L56.6095 32.1425L56.2799 32.5175L55.9237 32.9713L55.8807 33.0784L55.8214 33.2137L55.6996 33.2941L55.661 33.3284C55.5897 33.4191 55.5125 33.4876 55.4636 33.5724L55.37 33.6691L55.2379 33.8001L55.0628 34.0382L54.9469 34.1409C54.6723 34.4534 54.4184 34.6648 54.2623 34.7066L54.2401 34.7125L54.246 34.7348L54.1405 34.787L54.0335 34.744L53.9204 34.6787L53.721 34.4694C53.6242 34.3758 53.5705 34.1752 53.588 33.8838L53.5294 33.3978L53.5159 33.2581L53.5676 33.0053L53.6225 32.9428L53.7156 32.4879L53.7586 32.3808L53.9958 31.8394L54.0698 31.5807L54.1024 31.5241L54.1068 31.4513L54.264 31.1464L54.2891 30.9724L54.3484 30.8371L54.6134 29.9538L54.88 29.1656L55.0906 28.703L55.3708 28.0546L55.0364 28.1442L54.595 28.1908L54.5118 28.2369L54.4612 28.2266C54.4672 28.2489 54.4449 28.2549 54.4449 28.2549L54.1197 28.557L53.9119 28.8516L53.2556 29.4336L53.0968 29.6434L52.46 30.3874L52.0516 30.7358L51.9907 30.776L51.8705 30.9515L51.8542 30.9798L51.777 31.0483L51.2337 31.6955L50.9977 31.9738L50.8568 32.2505L50.5185 32.7711L50.2438 33.0836C50.1949 33.1684 50.14 33.2309 50.085 33.2934L50.0007 33.6027L49.9517 33.6875L49.8271 33.9359L49.6667 34.0506L49.6297 34.1799L49.5851 34.1919L49.5525 34.2484L49.4856 34.2663L49.4263 34.4017L49.3877 34.4359L48.9292 35.1321L48.9249 35.205L48.8373 35.324L48.7661 35.4148L48.7274 35.449L48.5034 35.7719L48.4055 35.9414L48.3832 35.9474L48.1977 36.236L48.2156 36.3029L48.171 36.3148L48.1324 36.3491L47.9752 36.654L47.7452 36.9545L47.6696 37.1182L47.6592 37.1687L47.496 37.4513L47.3878 37.6715L47.3301 37.902L47.2931 38.0313L47.1936 38.1058L47.1327 38.146L47.1163 38.1742L47.112 38.2471L47.1016 38.2976L47.0081 38.3944L46.9978 38.4449L47.0097 38.4895L46.983 38.5683L47.001 38.6352L46.9357 38.7483L46.9417 38.7705L46.8911 38.7602L46.8302 38.8004L46.7976 38.8569L46.7753 38.8629L46.759 38.8912L46.6491 39.0162L46.3995 39.1547L46.355 39.1667L46.349 39.1444L46.2049 39.2308L46.0934 39.2606L45.976 39.2682L45.9075 39.191L45.7917 39.2937L45.7412 39.2833L45.6162 39.1735L45.5254 39.1022L45.4999 38.9179L45.513 38.6994L45.562 38.6146L45.5337 38.5983L45.5321 38.5032L45.6197 38.3841L45.679 38.2488L45.8107 37.7596L46.1474 37.1438L46.1637 37.1155L46.1621 37.0204L46.223 36.9802L46.3667 36.5355L46.4749 36.3154L46.5549 36.0789L46.5756 35.9778L46.6186 35.8707L46.7149 35.606L46.7029 35.5614L46.7965 35.4647L46.8335 35.3353L46.9135 35.0989L47.1654 34.4341L47.2573 34.2422L47.3047 34.0623L47.5848 33.4139L47.6485 33.2057L47.9124 32.5855L48.0783 32.1349L48.1153 32.0055L48.1225 31.7647L48.1312 31.619L48.2188 31.5L48.3183 31.4255L48.327 31.2798L48.3597 31.2233L48.3418 31.1564L48.3075 31.1178L48.3342 31.039L48.3103 30.9498L48.3473 30.8205L48.325 30.8264L48.3413 30.7982L48.3696 30.8145L48.4245 30.752L48.4289 30.6791L48.4735 30.6672L48.4675 30.6449L48.5714 30.4976L48.6323 30.4574L48.721 30.0753L48.8352 29.8774L48.8766 29.6752L48.8261 29.6649L48.8957 29.479L48.9224 29.4001L48.9431 29.299L48.9371 29.2767L48.9088 29.2604L48.9028 29.2381L48.9251 29.2322L48.8937 29.0256L48.8785 28.7907L48.9052 28.7119L48.9792 28.4532L49.1663 28.2597L49.2674 28.2804L49.2435 28.1912L49.2984 28.1287L49.3653 28.1108L49.392 28.032L49.4974 27.9798L49.7367 27.8918L49.8704 27.856L49.9938 27.8707L50.0786 27.9197L50.1144 28.0534L50.0508 28.2616L50.0806 28.3731L50.0659 28.4965L50.013 29.0123L49.7221 29.3531L49.5246 29.5971L49.5083 29.6254L49.3706 30.0923L49.3826 30.1369L49.3293 30.2945L49.3488 30.4566L49.3237 30.6305L49.303 30.7316L49.2318 30.8224L49.2155 30.8506L49.1769 30.8849L49.1665 30.9354L49.1219 30.9474L49.1235 31.0425L49.0583 31.1556L48.9544 31.3029L48.8477 31.6181L48.7618 31.8323L48.7264 32.0568L48.6774 32.1416L48.48 32.3856L48.3021 32.7916L48.1699 32.9226L48.0084 33.3004L48.0203 33.345L47.9061 33.5428L47.7831 33.8863L47.77 34.1049L47.7167 34.2625L47.6144 34.5049L47.61 34.5778L47.4675 34.7593L47.3326 35.0582L47.1667 35.5089L47.017 35.9312L46.8718 36.2807L46.6258 36.9678L46.5773 37.4108L46.5566 37.5119L46.5729 37.4837L46.6621 37.4598L46.717 37.3973L46.7839 37.3794L46.8225 37.3451L46.8551 37.2886L46.971 37.1859L46.9634 37.0685L47.039 36.9049L47.1326 36.8081L47.3316 36.6592L47.4963 36.4717L47.6655 36.2114L47.6981 36.1549L47.7367 36.1206L47.8406 35.9733L48.0364 35.6342L48.4297 35.051L48.5781 34.8918L48.9507 34.4097L49.0426 34.2178L49.0752 34.1613L49.1911 34.0586L49.4434 33.752L49.5397 33.4873L49.6229 33.4411L49.8752 33.1346L50.0221 32.8803L50.1156 32.7835L50.126 32.733L50.442 32.2183L50.5741 32.0873L50.7596 31.7987L50.8026 31.6916L50.9124 31.5666L51.0653 31.3345L51.2137 31.1753L51.3709 30.8704L51.831 30.2693L51.9676 30.0654L52.0595 29.8736L52.4129 29.5877L52.6549 29.3318L52.7083 29.1741L52.7588 29.1845L52.8301 29.0937L52.9132 29.0475L53.0334 28.872L53.0661 28.8154L53.2042 28.7068L53.369 28.5193L53.6066 28.3361L53.8872 28.0459L53.9079 27.9448L54.1945 27.6769L54.8051 27.37L55.2417 27.0379L55.4467 26.9113L55.5685 26.8309L55.6234 26.7684L55.662 26.7342L55.7066 26.7222L55.674 26.7788L55.8805 26.7473L55.9757 26.7457L56.1692 26.9328L56.1843 27.1676L56.1413 27.2747C56.0793 27.578 55.8894 27.9395 55.7931 28.2042C55.7664 28.283 55.7278 28.3173 55.7175 28.3678L55.581 28.5716L55.507 28.8304L55.2459 29.2826L55.0783 29.6381L55.0517 29.7169L54.9271 29.9653L54.588 31.1073L54.4237 31.6531L54.3441 32.2478L54.3218 32.2537L54.3278 32.276L54.2021 32.7875L54.1965 33.1235L54.1535 33.2306L54.1209 33.2871L54.0958 33.4611L54.0855 33.5116L54.1496 33.6617L54.242 33.8281L54.2941 33.9335L54.3626 34.0108L54.4028 34.0717L54.4311 34.088L54.7296 33.8646L54.8128 33.8185C54.9226 33.6935 55.0265 33.5462 55.1467 33.3706L55.2283 33.2293L55.3278 33.1549C55.4703 32.9733 55.5845 32.7755 55.721 32.5717L55.9348 32.2994L56.0386 32.1521L56.4721 31.6298L57.2394 30.6597L57.2928 30.502L57.364 30.4113L57.5021 30.3026L57.5913 30.2787C57.6239 30.2222 57.6625 30.1879 57.7011 30.1537L57.7501 30.0689L57.7604 30.0184L57.7545 29.9961L57.7871 29.9395L57.7915 29.8667L57.7855 29.8444L57.879 29.7477L57.8508 29.7314L57.8731 29.7254L57.9236 29.7357L57.9845 29.6955L58.0172 29.639L58.0617 29.6271L58.2221 29.5124L58.3782 29.4706L58.4777 29.3961L58.5505 29.4005L58.5342 29.4288L58.6843 29.3647L58.7006 29.3364L58.818 29.3288L58.9414 29.3436L59.0262 29.3925L59.0561 29.504L59.0398 29.5322L59.062 29.5263L59.0294 29.5828L58.9972 29.9976L59.0151 30.0644L58.9753 30.3618L58.8464 30.683L58.8022 31.0532L58.7712 31.2049L58.6853 31.419L58.5074 31.8251L58.46 32.005L58.386 32.2637L58.3446 32.466L58.3375 32.7068L58.4477 32.94L58.6396 33.032C58.8418 33.0733 59.1436 33.0403 59.4437 32.9121L59.5714 32.854L59.5774 32.8762C59.5997 32.8703 59.616 32.842 59.6383 32.836L59.6546 32.8078L59.7096 32.7453L59.9711 32.6513L60.1701 32.5024L60.2859 32.3997L60.4093 32.4144L60.4642 32.3519L60.4806 32.3237L60.6083 32.2655L61.0107 31.8949L61.2527 31.6389L61.3805 31.5808L61.4844 31.4335L61.5513 31.4156L61.8155 31.1537L61.9433 31.0955L62.0591 30.9928L62.3131 30.7814L62.561 30.5478L63.1016 30.0685L63.1565 30.006L63.8514 29.3897L63.9227 29.2989L64.1826 29.1098L64.2761 29.0131L64.5181 28.7571L64.6443 28.6039L64.7275 28.5577L64.8242 28.6512L64.8258 28.7464L64.7263 28.8208L64.6877 28.855L64.5942 28.9518L64.5675 29.0306L64.5349 29.0871L64.4071 29.1453L63.8519 29.748L63.7094 29.9295L63.6425 29.9474L63.4109 30.1528L63.2461 30.3403L63.1466 30.4148L63.1139 30.4713L63.053 30.5115L62.7279 30.8137L62.612 30.9164L62.5185 31.0131L62.4086 31.1381L62.3314 31.2066L62.2602 31.2973L62.0894 31.4625L62.0508 31.4968L61.9513 31.5712L61.8801 31.662L61.7033 31.8049L61.4211 32L61.0677 32.2858L60.9192 32.445L60.8241 32.4466L60.6251 32.5955C60.5642 32.6357 60.5093 32.6982 60.4261 32.7444L60.3875 32.7787L60.282 32.8308L60.0324 32.9694L60.0384 32.9916L59.9938 33.0036L59.878 33.1063L59.7502 33.1644L59.6387 33.1943C59.4947 33.2807 59.3669 33.3388 59.2109 33.3806L58.9879 33.4403C58.8988 33.4642 58.8036 33.4658 58.7085 33.4674L58.6416 33.4854ZM64.8905 29.5413L65.0836 29.3701C65.1222 29.3359 65.1548 29.2794 65.1875 29.2229L65.1114 29.0282L65.193 28.8869L65.2344 28.6847L65.2208 28.545L65.359 28.4363L65.3526 28.0557L65.333 27.8937L65.3848 27.641L65.3903 27.305L65.3974 27.0642L65.3317 26.819L65.3421 26.7684L65.2911 26.3998L65.3015 26.3493L65.2955 26.327L65.1693 26.4803L65.1204 26.565C65.0595 26.6053 65.0089 26.5949 64.9806 26.5786C64.9524 26.5623 64.9818 26.3155 65.0308 26.2307L65.1955 26.0432L65.2891 25.9464L65.3054 25.9182C65.3277 25.9122 65.3217 25.8899 65.344 25.8839C65.3766 25.8274 65.4093 25.7709 65.4479 25.7367L65.5132 25.6236L65.5561 25.5165L65.5888 25.46L65.5649 25.3708L65.5812 25.3426L65.6198 25.3083L65.6911 25.2176L65.7683 25.1491L65.7802 25.1937L65.9808 25.1399L66.1608 25.1873L66.189 25.2036L66.2396 25.2139L66.2292 25.2645L66.3896 25.1498C66.4951 25.0977 66.5799 25.1466 66.5935 25.2864C66.5994 25.3087 66.5831 25.3369 66.5891 25.3592L66.6456 25.3918L66.6504 25.6772L66.6492 25.9404L66.5067 26.1219L66.4033 26.6274L66.4168 26.7671L66.2982 27.0378L65.9978 28.1456L66.2665 27.8109L66.3035 27.6815L66.4786 27.4434L66.7978 27.119L67.0545 26.7396L67.1584 26.5923L67.3678 26.3929L67.644 26.1755L67.7984 26.0386L67.9469 25.8793L68.2454 25.656L68.8958 25.0517L68.9447 24.9669L68.9431 24.8718L68.9714 24.8881L69.0725 24.9088L69.5358 24.498L69.5907 24.4355L69.6353 24.4235L70.4417 23.7774L70.4357 23.7551L70.458 23.7491L71.4308 23.0107L71.5244 22.9139L71.6907 22.8216L72.6755 22.1277C72.8805 22.0011 73.2029 21.8669 73.5372 21.7773L73.5253 21.7327L73.6531 21.6746L73.6471 21.6523L73.6694 21.6463L73.6813 21.6909L73.8374 21.6491L73.8656 21.6654L73.8819 21.6372L74.0439 21.6176L74.2179 21.6427L74.313 21.6411L74.3473 21.6797L74.325 21.6857L74.493 21.6885L74.5152 21.6825L74.7131 21.7967L74.725 21.8413L74.8142 21.8174L74.9495 21.8767L75.1534 22.0132L75.2175 22.1633L75.1418 22.3269C75.4189 22.826 75.335 23.4936 75.0727 24.2089L75.0899 24.8971L75.0024 25.0162L74.4618 25.4955L74.4678 25.5178L74.2883 25.8286L73.0923 27.6065L72.5681 28.0575L72.1418 28.339L72.0869 28.4015L72.0423 28.4134L71.7171 28.7156L71.6622 28.7781L71.4528 28.9775L71.2642 29.0758C71.0102 29.2872 70.734 29.5046 70.4295 29.7056L70.2201 29.9051L70.0701 29.9692L69.9097 30.0838L69.6704 30.1718C69.4268 30.3327 69.1713 30.4489 68.9217 30.5875L68.8608 30.6277L68.7494 30.6575L68.5607 30.7559L68.5384 30.7618L68.4063 30.8928L68.1893 30.9748L68.1448 30.9868L68.017 31.0449L67.849 31.0421L67.7049 31.1285L67.5266 31.1763L67.4315 31.1779L67.3081 31.1632C66.8117 31.2723 66.3137 31.2863 65.8647 31.2155C65.8201 31.2274 65.7919 31.2111 65.7413 31.2007L65.719 31.2067L65.6462 31.2023L65.4886 31.149L65.4157 31.1446L65.3043 31.1745L65.1586 31.1658L65.1303 31.1494L65.003 31.5658L65.0089 31.5881L64.9644 31.6001L64.917 31.78L64.9126 31.8528L64.5911 32.7035L64.578 32.922L64.5262 33.1748L64.461 33.2879L64.3288 33.4188L64.0845 34.201L63.7868 35.1409L63.7765 35.1914L63.7498 35.2702L63.747 35.4382L63.6448 35.6806L63.5974 35.8606L63.5397 36.091L63.4581 36.2324L63.3722 36.4465L63.2655 36.7618L63.1931 37.1157L63.1115 37.257L63.0582 37.4146L63.0538 37.4875L62.9515 37.7299L62.6849 38.5181L62.6109 38.7768L62.6005 38.8274L62.5205 39.0638L62.4792 39.266L62.3029 39.7672L62.2332 39.9531L62.0852 40.4706L61.9459 40.8424L61.8436 41.0848L61.6836 41.5577L61.645 41.5919C61.5917 41.7496 61.5444 41.9295 61.4687 42.0931L61.448 42.1942L61.3354 42.4872L61.2065 42.8084L61.0035 43.3884L61.066 43.4433L60.9769 43.4672L60.9176 43.6026L60.8599 43.8331L60.8838 43.9222L60.1531 45.7426L60.0492 45.8899L59.7663 46.7063L59.7842 46.7732L59.7129 46.8639C59.5159 47.4662 59.3309 48.1131 59.1475 48.8551L58.8001 50.5011L58.8157 51.0942L58.723 51.9074L58.6088 52.1052L58.6446 52.239L58.6968 52.3445L58.6864 52.395L58.7163 52.5065L58.7119 52.5793L58.739 52.8587L58.6101 53.18L58.542 53.461L58.4811 53.5012L58.4648 53.5295L58.4039 53.5697L58.2299 53.5446L58.1392 53.4734L58.0767 53.4185L58.0082 53.3413L57.9963 53.2967L57.9441 53.1912L57.886 53.0634L57.8131 53.0591L57.7594 52.8584L57.673 52.7143L57.6774 52.6415L57.622 52.3458L57.6383 52.3175L57.5981 52.2566L57.583 52.0217L57.5101 52.0174L57.5264 51.9891L57.5547 52.0054L57.5559 51.7423L57.6228 51.7244L57.6494 51.6456L57.6641 51.5222L57.7191 51.4597L57.7354 51.4314L57.7345 50.7149L57.7047 50.6035L57.752 50.4235L57.7496 49.6119L57.9433 48.8193L58.1613 47.1364L58.1848 46.8673L58.2349 46.5194L58.295 45.7627L58.4506 45.3626L58.5954 44.6548L58.583 44.252L58.792 43.6943L58.8655 43.0773L58.9009 42.8528L59.0239 42.5093L59.1958 42.081L59.2921 41.8162L59.3602 41.5352L59.5218 41.1574L59.8461 40.1388L59.825 39.8816L59.8457 39.7805L60.0061 39.6659C60.129 39.3224 60.2297 38.9848 60.3587 38.6636L60.3718 38.445L60.4518 38.2086L60.5883 38.0048L60.6563 37.7237L60.671 37.6003L60.7451 37.3416L60.7761 37.1899L60.8963 37.0144L61.0268 36.7883L61.3337 36.061L61.4061 35.7071L61.4937 35.5881L61.6541 35.4734L61.7193 35.3604L61.7504 35.2087L61.9135 34.9261L62.1241 34.4635L62.179 34.401L62.612 33.5205L62.606 33.4982L62.6446 33.464C62.6773 33.4074 62.7039 33.3286 62.7589 33.2661L62.7529 33.2438L62.7692 33.2156L62.7943 33.0416L62.8818 32.9226L62.8846 32.7546L62.9602 32.591L63.0092 32.5062L63.1799 32.341L63.2229 32.2339L63.3387 32.1312L63.3996 32.091L63.5851 31.8024L63.5895 31.7295L63.6651 31.5659L63.757 31.3741L63.8892 31.2431L64.0197 31.017L64.0062 30.8773L64.0611 30.8148L64.1503 30.7909C64.1889 30.7566 64.2215 30.7001 64.2319 30.6496L64.2525 30.5485L64.395 30.3669L64.5522 30.062L64.8089 29.6826L64.8905 29.5413ZM71.9483 28.1519L71.9543 28.1742L72.428 27.7128L72.937 27.0269L73.0321 27.0253L73.0914 26.89L73.1583 26.872L73.3231 26.6846L73.3617 26.6503L73.5635 26.3334L73.5456 26.2666L73.6511 26.2144L73.7653 26.0166L73.7963 25.8649L73.7724 25.7758L73.9698 25.5317L74.3081 25.011L74.5166 24.0951L74.5939 24.0266L74.558 23.8929L74.613 23.8304L74.6201 23.5896L74.6523 23.1748L74.5615 23.1035L74.5985 22.9742L74.6013 22.8062L74.509 22.6398L74.4465 22.5849L74.3764 22.4125L74.2291 22.3086L74.1399 22.3325L74.0894 22.3222L74.0329 22.2896L73.9035 22.2526L73.8752 22.2362L73.5273 22.1861L73.4382 22.21L73.3104 22.2681L73.2555 22.3306L73.1902 22.4437L73.0015 22.542L72.9227 22.5154L72.8216 22.4947L72.1055 22.8538L72.0506 22.9163L72 22.9059L71.3807 23.3586L71.2382 23.5401L71.1061 23.6711L70.95 23.7129L70.7005 23.8514C70.3247 24.1432 69.9772 24.4513 69.6744 24.7475L69.2023 25.304L69.0419 25.4187L68.9321 25.5437L68.4644 26.0274L68.255 26.2268L68.0114 26.3877L67.5883 26.8594L67.566 26.8654L67.5231 26.9724L67.4295 27.0692L67.3137 27.1719C66.9678 27.5751 67.088 27.3996 66.7764 27.8415L66.3429 28.3637L66.245 28.5333L66.0106 28.9067L65.8622 29.066L65.8029 29.2013L65.6974 29.2535C65.6811 29.2817 65.687 29.304 65.6647 29.31L65.6381 29.3888L65.6011 29.5182L65.613 29.5628L65.5048 29.7829L65.4367 30.0639L65.4323 30.1368L65.379 30.2944L65.3567 30.3004L65.2931 30.5086L65.2354 30.739L65.2087 30.8179C65.2652 30.8505 65.3217 30.8831 65.3723 30.8935L65.5745 30.9349L65.799 30.9703L65.967 30.973L66.0562 30.9491L66.297 30.9563L66.6047 30.9455L66.7563 30.9766C67.3092 30.9001 67.8828 30.7225 68.4385 30.478L68.7876 30.2651L68.9599 30.195L69.1382 30.1472C69.6434 29.8924 70.1528 29.5648 70.6341 29.2208L70.683 29.136L70.9549 28.9915L71.5236 28.5285L71.6052 28.3872L71.7879 28.2666L71.8755 28.1475L71.9483 28.1519ZM63.8488 33.4997L64.0446 33.1605L64.0979 33.0029L64.0963 32.9077L64.1882 32.7159L64.2475 32.5805L64.2829 32.356L64.2738 32.1435L64.3956 32.063L64.388 31.9456L64.4576 31.7597L64.4724 31.6363L64.5615 31.6124L64.7525 30.9879L64.6172 30.9286C64.5253 31.1204 64.4051 31.296 64.2908 31.4938L64.1722 31.7645L63.9808 32.0308L63.736 32.4548L63.6724 32.663L63.4765 33.0021L63.3014 33.2402L63.2035 33.4098L62.9974 33.7995L62.9679 34.0463L62.7808 34.2398C62.6829 34.4093 62.6133 34.5952 62.5214 34.7871L62.48 34.9893L62.3701 35.1143L62.2782 35.3062L62.0693 35.8639L61.8337 36.5004L61.807 36.5792L61.6482 36.789L61.5889 36.9243L61.5682 37.0254L61.4377 37.2516L61.3637 37.5103L61.2168 37.7647C61.1308 37.9788 61.0389 38.1707 60.9752 38.3789L60.8996 38.5425C60.8789 38.6436 60.8359 38.7507 60.787 38.8355L60.707 39.0719L60.6923 39.1953L60.6716 39.2964L60.584 39.4155C60.5737 39.466 60.5633 39.5166 60.5307 39.5731L60.4376 40.0281L60.2744 40.3107L60.1041 40.8342L60.085 41.0304L60.0094 41.194L59.9652 41.5642L59.7666 42.0714L59.5549 42.797L59.4586 43.0617L59.3906 43.3428L59.3492 43.545L59.2442 43.9554L59.2072 44.0848C59.1538 44.2424 59.1288 44.4164 59.0977 44.568L59.0874 44.6186L59.0432 44.9888L58.8881 45.7471L58.7993 46.1292L58.74 46.2646L58.4285 48.0443L58.3876 48.6048L58.4114 48.6939L58.3685 48.801L58.2348 50.1747L58.287 50.2802C58.3952 50.06 58.5095 49.8622 58.5508 49.66C58.8099 48.7544 59.0853 47.8205 59.3889 46.903L59.3161 46.8986L59.2743 46.7426L59.5222 46.5089C59.6392 46.1431 59.7562 45.7773 59.8955 45.4055L59.8895 45.3832L59.9118 45.3772L60.4228 43.8068L60.4391 43.7786C60.5621 43.435 60.691 43.1138 60.7917 42.7762L61.2199 41.6103L61.2227 41.4423L61.3827 40.9694L61.3588 40.8802L61.5339 40.6422L61.541 40.4014L61.7412 39.9894L62.1945 38.6495L62.3175 38.3059L62.3115 38.2836L62.3441 38.2271L62.4165 37.8732L62.6346 37.5281L62.762 37.1117L62.8643 36.8693L63.0183 36.3741L63.0226 36.3013L63.0553 36.2447L63.3693 35.2766L63.39 35.1755L63.4373 34.9956L63.4651 34.6537L63.5141 34.5689L63.6414 34.1525L63.6741 34.096L63.7171 33.9889L63.8014 33.6796L63.8488 33.4997ZM64.8695 30.622C64.8859 30.5938 64.8799 30.5715 64.8799 30.5715L64.8413 30.6057L64.8695 30.622ZM83.7127 25.0235L83.7557 24.9165L83.766 24.8659L83.7927 24.7871L84.0625 24.1892L84.1039 23.987L84.1528 23.9022L84.1632 23.8516L84.2181 23.7891L84.408 23.4277L84.4673 23.2923L84.4553 23.2478L84.4836 23.2641L84.4907 23.0232L84.4625 23.0069L84.345 23.0145L84.1444 23.0683L83.8948 23.2068L83.3141 23.6252L83.17 23.7116L83.0645 23.7638L82.5256 24.3382L82.5033 24.3442L82.3549 24.5034L82.2168 24.6121L82.0846 24.7431L81.6376 25.1256L81.2026 25.5528L81.0259 25.6957L80.7393 25.9636L80.6398 26.0381L80.4141 26.2658L80.2923 26.3462L79.9568 26.6989L79.8469 26.8239L79.743 26.9712L79.5604 27.0918L79.3836 27.2347L78.9263 27.6678L78.8937 27.7244L78.7066 27.9178L78.662 27.9298L78.668 27.9521L78.4674 28.0058L78.2297 28.189L78.0514 28.2367C77.9965 28.2992 77.9133 28.3454 77.8524 28.3856L77.7812 28.4764L77.3772 28.7519L77.294 28.7981L76.9954 29.0214L76.9568 29.0556L76.8959 29.0958L76.8291 29.1138L76.6894 29.1273L76.6671 29.1333C76.3224 29.2734 76.0147 29.2842 75.8598 29.0629C75.693 28.797 75.6926 28.4388 75.753 28.0403L75.7705 27.7489L75.8314 27.7087L75.8298 27.6136L75.8831 27.4559L75.9038 27.3548L75.9424 27.3206L75.9484 27.3429L75.9631 27.2195L76.0594 26.9548L76.2569 26.7107L76.2895 26.6542L76.3902 26.3167L76.4495 26.1813L76.592 25.9998L76.7997 25.7052L77.5639 24.5448L77.5579 24.5225L77.5802 24.5166L77.8043 24.1937L77.8532 24.1089L78.1486 23.6953L78.297 23.5361L78.7631 22.9573L78.7794 22.929L78.9692 22.5676L79.0508 22.4262L79.0982 22.2463L79.1368 22.2121L79.2988 22.1926L79.3537 22.1301L79.4978 22.0437L79.581 21.9975L79.6865 21.9453L79.7577 21.8546L79.7458 21.81L79.9062 21.6953L80.5239 21.1476L80.6278 21.0003L80.705 20.9318L80.8714 20.8394L80.922 20.8498L80.9606 20.8155L81.1433 20.6949L81.2101 20.677L81.3037 20.5803L81.4537 20.5162L81.5755 20.4357L81.7196 20.3493L81.8028 20.3032L82.0436 20.3103L82.1714 20.2522L82.3051 20.2163L82.4003 20.2147L82.4449 20.2028L82.4508 20.2251L82.54 20.2012L82.6188 20.2279L82.6531 20.2665L82.7482 20.2649L82.8226 20.3644L82.8764 20.565L82.8215 20.6275C82.8171 20.7003 82.7622 20.7628 82.6479 20.9607C82.593 21.0232 82.5202 21.0188 82.4919 21.0025L82.2646 21.1351L82.1146 21.1992L81.7133 21.3067L81.3447 21.3577L81.3507 21.3799L81.2615 21.4038L81.2556 21.3815L81.211 21.3935L81.0609 21.4576L80.9049 21.4994L80.6287 21.7168L80.3138 21.9684L79.8609 22.3286L79.546 22.5802C79.4302 22.6829 79.3426 22.802 79.2328 22.927C79.2165 22.9552 79.2165 22.9552 79.2105 22.9329L79.0517 23.1427L79.0354 23.171L78.9968 23.2052L78.1908 24.2096L78.1255 24.3227L77.9846 24.5993L77.8704 24.7972L77.7383 24.9281L77.5675 25.0933L77.5186 25.1781L77.3777 25.4548L77.345 25.5113L77.3184 25.5901L77.1405 25.9962L77.0856 26.0587L77.0529 26.1152L76.998 26.1777L76.9773 26.2788L76.9343 26.3859L76.8897 26.3978L76.875 26.5212L76.8157 26.6566L76.795 26.7577L76.7134 26.899L76.6378 27.0626L76.4866 27.3898L76.4985 27.4344L76.5567 27.5622L76.5463 27.6127L76.5583 27.6573L76.5256 27.7138L76.4544 27.8046L76.4114 27.9117L76.3358 28.0753L76.2825 28.2329L76.2944 28.2775L76.2841 28.328L76.3199 28.4618L76.3824 28.5167L76.4791 28.6102L76.558 28.6369L76.9783 28.3332L77.1669 28.2348L77.4491 28.0398L77.4714 28.0338L77.5769 27.9816C77.8368 27.7925 78.0908 27.5811 78.3447 27.3697L78.4382 27.273L78.5704 27.142L78.658 27.023L78.8363 26.9752C79.0516 26.7981 79.2892 26.615 79.4986 26.4155L79.5862 26.2965L79.7243 26.1878L79.7183 26.1655L79.7569 26.1313L79.8059 26.0465L79.8891 26.0003L80.1816 25.7547L80.336 25.6177L80.4682 25.4868L80.9864 25.0134L81.1126 24.8602L81.6591 24.4032L81.7809 24.3227L82.1283 24.0146L82.2871 23.8048L82.6346 23.4967L82.7222 23.3777L82.8706 23.2184L82.9582 23.0994L83.1779 22.8494L83.4199 22.5934L84.0691 22.2523L84.3366 22.1806L84.5492 22.1714L84.7291 22.2188L84.8362 22.2617C84.9313 22.2601 84.9878 22.2928 85.0563 22.37L85.0623 22.3923L85.1128 22.4026L85.1367 22.4918L85.1323 22.5646L85.1769 22.5527L85.1666 22.6032L85.1383 22.5869L85.1057 22.6435L85.079 22.7223L85.0583 22.8234L84.9544 22.9707C84.9441 23.0212 84.9115 23.0777 84.8788 23.1343L84.7885 23.4213L84.6846 23.5686L84.6237 23.6088L84.4398 23.9925L84.4072 24.049L84.4132 24.0713L84.3746 24.1056L84.2886 24.3197L84.262 24.3985L84.2413 24.4997L84.1286 24.7926C84.096 24.8492 84.0916 24.922 84.0813 24.9726L84.0622 25.1688L84.0459 25.1971C84.0252 25.2982 84.0268 25.3933 84.061 25.4319C84.0789 25.4988 84.0447 25.4602 84.1398 25.4586C84.1621 25.4526 84.1904 25.4689 84.2127 25.463L84.3182 25.4108L84.4742 25.369L84.5128 25.3348L84.6688 25.2929L84.7743 25.2408L84.8249 25.2511C84.9749 25.187 85.0967 25.1066 85.2854 25.0083L85.4518 24.9159L85.5899 24.8072L85.7236 24.7714L86.4441 24.3395L86.499 24.277L86.7263 24.1444L86.7323 24.1667L86.9982 23.9999L87.1526 23.8629L87.2358 23.8167L87.307 23.726L87.9889 23.3283L87.9769 23.2837L88.0557 23.3103L88.2384 23.1897L88.2874 23.1049L89.2737 22.5062L89.3852 22.4763L89.8946 22.1487C89.9169 22.1427 89.9392 22.1367 89.9675 22.153L90.0121 22.1411L90.0762 22.2911L90.0049 22.3819L89.8266 22.4297L89.4715 22.6204L89.2399 22.8258L89.1507 22.8497L88.818 23.0344L88.6576 23.1491L88.2106 23.5316L87.8735 23.7892L87.4858 24.0364L87.0432 24.3462L86.9659 24.4146L86.7669 24.5635L86.6734 24.6603L86.513 24.7749L86.4907 24.7809L86.3526 24.8896L86.2041 25.0488L86.1432 25.089L86.1106 25.1455L85.5848 25.5014L85.5967 25.546L85.5685 25.5297L85.4081 25.6444L85.3977 25.6949L85.0546 25.9302L84.7501 26.1312L84.6626 26.2503L84.6462 26.2785L84.612 26.2399L84.5511 26.2801L84.5185 26.3367L84.4679 26.3263L84.4516 26.3546L84.3075 26.441L84.0623 26.5067L84.0118 26.4963L83.8557 26.5381L83.7323 26.5234L83.6312 26.5027L83.5405 26.4315L83.5329 26.3141L83.4867 26.2309C83.4405 26.1477 83.4226 26.0808 83.4313 25.9351L83.4564 25.7612L83.4548 25.666L83.5571 25.4236L83.5941 25.2942L83.7127 25.0235ZM90.2173 22.8267L90.2663 22.7419L90.3033 22.6125L90.3196 22.5843L90.3936 22.3255L90.478 22.0162L90.6276 21.5939L90.6587 21.4422L90.9536 20.6704L91.0172 20.4622L91.0602 20.3551L91.2023 19.8153L91.3296 19.3989L91.4406 19.0108L91.4581 18.7195L91.4223 18.5857L91.3777 18.5977L91.3658 18.5531L91.3984 18.4966L91.2582 18.1518L91.1893 17.7164L91.1981 17.5707L91.239 17.0102L91.5686 16.6352L91.8019 16.5249L92.0606 16.599L92.141 16.7208L92.1888 16.8991L92.266 16.8306L92.2393 16.9094L92.1948 16.9214L92.1621 16.9779L92.1534 17.1236C92.1594 17.1459 92.1876 17.1622 92.1936 17.1845C92.2207 17.4639 92.1363 17.7732 92.0683 18.0543L92.1181 18.686L92.0055 18.9789L91.8956 19.1039L91.7563 19.4757L91.6943 19.7791L91.6366 20.0095L91.6071 20.2563L91.4646 20.4379L91.4439 20.539L91.4352 20.6847L91.4471 20.7292L91.3699 20.7977L91.075 21.5696L91.0782 21.7598L90.9003 22.1659L90.8502 22.5138L90.5792 23.3748L90.5378 23.577L90.3882 23.9994L90.3942 24.0216L90.3795 24.145L90.3408 24.1793L90.3098 24.3309L90.2744 24.5555C90.362 24.4364 90.3827 24.3353 90.4479 24.2223L90.4909 24.1152L90.5072 24.0869L90.5383 23.9353L90.6481 23.8103L90.6971 23.7255L90.789 23.5336L90.8989 23.4086L91.0457 23.1542L91.1393 23.0575C91.3574 22.7124 91.5695 22.3449 91.8099 21.9938L91.8855 21.8302L91.9122 21.7514L92.0769 21.5639L92.1808 21.4166L92.4718 21.0759L92.5207 20.9911L92.9438 20.5193L93.0433 20.4449C93.22 20.302 93.3685 20.1427 93.5229 20.0058C93.6388 19.9031 93.9373 19.6798 94.2108 19.6304L94.2048 19.6081L94.6343 19.5169L94.8381 19.6534L95.1147 19.7943L95.2772 20.133L95.319 20.2891L95.3564 20.5179L95.3835 20.7974L95.403 20.9594L95.4508 21.1377L95.4664 21.7308L95.4783 21.7754L95.6881 21.9342L95.8267 22.1838L95.8832 22.2164L95.8506 22.2729L95.8478 22.4409L95.8956 22.6192L96.0266 22.7514L96.1396 22.8166L96.3597 22.9249C96.6778 22.8636 97.0448 22.7174 97.4281 22.5431L97.8261 22.2453L97.9539 22.1872L98.2138 21.9981L98.3416 21.9399L98.7233 21.6704L98.9876 21.4085L99.1822 21.3324L99.3649 21.2118L99.708 20.9765C99.9456 20.7934 100.177 20.588 100.409 20.3826L100.59 20.1668L100.696 20.1146L101.159 19.7038L101.285 19.5505L101.422 19.3467L101.586 19.1592L102.139 18.7245L102.777 18.0756L102.842 17.9626L103.107 17.7006L103.174 17.6827L103.162 17.6381L103.229 17.6202L103.393 17.4327L103.426 17.3762L103.56 17.3404L103.65 17.4116L103.674 17.5008L103.619 17.5633L103.52 17.6377C103.223 17.9562 102.932 18.2969 102.613 18.6214L102.482 18.8475L102.338 18.9339L102.206 19.0648L102.161 19.0768L101.942 19.3268L101.909 19.3833L101.826 19.4295C101.804 19.4355 101.787 19.4637 101.771 19.492L101.738 19.5485L101.639 19.623L101.617 19.6289C101.43 19.8224 101.22 20.0219 101.005 20.199L100.702 20.4952L99.8911 21.2141L99.8079 21.2603L99.7916 21.2886L99.5676 21.6114L99.3582 21.8109L99.0581 21.9391L98.7715 22.207L98.6334 22.3157L98.4447 22.414L98.1892 22.5303L98.0391 22.5944L97.9619 22.6628L97.8787 22.709L97.8178 22.7492C97.6514 22.8416 97.4791 22.9117 97.3067 22.9817L97.0229 23.0817L96.9294 23.1784L96.8462 23.2246L96.6559 23.2278L96.5341 23.3082L96.3498 23.3337L96.3052 23.3456C96.0437 23.4396 95.7611 23.2764 95.486 23.2307C95.3344 23.1996 95.199 23.1403 95.1186 23.0185L95.0724 22.9354C95.0203 22.8299 94.9904 22.7184 94.9546 22.5847L94.8948 22.3618L94.9123 22.0704L94.9163 21.6393L94.894 21.6453L94.9266 21.5887L94.9345 20.7266L94.9122 20.7325L94.8557 20.6999L94.903 20.52C94.858 20.1737 94.7195 19.9241 94.4118 19.9349C94.2721 19.9484 94.2096 19.8935 94.0492 20.0081L93.8561 20.1793L93.7136 20.3608C93.6914 20.3668 93.6973 20.3891 93.675 20.3951L93.2905 20.8326L93.2639 20.9114L93.209 20.9739L92.9479 21.4261L92.7934 21.5631L92.7847 21.7087L92.2311 22.4066L92.1479 22.4528L91.9994 22.612L91.9162 22.6582L91.8748 22.8604L91.7324 23.0419L91.6774 23.1044L91.529 23.2637L91.4088 23.4392L91.3375 23.53L91.2961 23.7322L91.121 23.9702L90.9622 24.18C90.7174 24.604 90.495 25.022 90.2279 25.4519L90.1746 25.6095L90.1463 25.5932L89.9935 25.8253C89.9712 25.8312 89.9712 25.8312 89.9549 25.8595L89.9445 25.9101L89.8836 25.9503L89.9179 25.9889L89.9298 26.0335L89.845 25.9845L89.802 26.0916L89.6966 26.1437L89.5003 26.1247L89.3574 25.9479L89.2379 25.5021L89.2924 25.0814L89.3681 24.9178L89.5312 24.6351L89.7629 24.4297L89.745 24.3628L89.7673 24.3569L89.8178 24.3672L89.7939 24.278L89.8489 24.2155L89.8902 24.0133L89.924 23.6937L89.9997 23.5301L90.0144 23.4067L90.2173 22.8267ZM109.217 15.5856L109.406 15.4872L109.863 15.0541L109.928 14.9411L109.983 14.8786L110.172 14.7802L110.227 14.7177L110.259 14.6612L110.343 14.615L110.844 14.1699L110.916 14.0792L111.052 13.8754L111.125 13.8797L111.235 13.7547L111.296 13.7145L111.456 13.5999L111.489 13.5434L111.582 13.4466L111.727 13.3602L111.793 13.3423L111.986 13.1711C112.009 13.1652 112.08 13.0744 112.163 13.0282L112.174 12.9777L112.383 12.7782L112.444 12.738L112.46 12.7097L112.566 12.6576L112.663 12.488L112.775 12.4581L112.809 12.4968C112.831 12.4908 112.87 12.4565 112.909 12.4223L113.272 12.0859L113.368 12.0843L113.561 11.9131L113.67 11.7881L113.821 11.724L113.908 11.605L114.069 11.4904L114.129 11.4502L114.387 11.429L114.486 11.3546L114.664 11.3068C115.07 11.1265 115.4 11.1097 115.516 11.3652L115.522 11.3875L115.567 11.3756L115.708 11.4572L115.738 11.5686L115.805 11.5507L115.861 11.5834L115.829 11.6399L115.768 11.6801L115.753 11.8035L115.813 12.0264L115.659 12.5216L115.703 13.131L115.618 13.4403L115.486 13.5713L115.396 13.8583L115.311 14.1676L115.248 14.3758L115.359 14.3459L115.434 14.4454L115.364 14.6313L115.253 14.6612L115.223 14.5497L115.196 14.6285L115.109 14.7476L115.061 14.9275L115.079 14.9944L115.018 15.0346C115.002 15.0628 114.986 15.0911 114.992 15.1134L115.009 15.1803L114.96 15.265L114.679 16.1766L114.663 16.2049C114.636 16.2837 114.615 16.3848 114.567 16.4696L114.568 16.5647L114.546 16.5707L114.455 16.8577L114.461 16.88L114.457 16.9528L114.414 17.0599L114.432 17.1268L114.361 17.2176L114.385 17.3067L114.216 17.5671L114.07 17.9166L114.03 18.2139L113.992 18.2482L113.939 18.4058L113.863 18.5694L113.504 19.5494L113.427 19.6179L113.406 19.719L113.279 20.1354L113.186 20.2321C113.192 20.2544 113.175 20.2827 113.159 20.311L113.107 20.5637L113.036 20.6545L112.989 20.8344L112.995 20.8567L112.978 20.885L112.937 21.0872L112.949 21.1318L112.888 21.172L112.855 21.2285L112.824 21.3802L112.706 21.6508L112.63 21.8145L112.56 22.0004L112.556 22.0732L112.336 22.3232L112.111 22.9091L112.102 23.0548L112.006 23.3196L111.865 23.5962L111.419 24.6953L111.412 24.9361L111.347 25.0492L111.197 25.1133L111.146 25.1029L111.062 25.4122L110.892 25.6726L110.854 25.7068L110.611 26.2259L110.476 26.5248L110.47 26.5025L110.302 26.858L110.298 26.9309L110.191 27.2461L110.105 27.4603L110.018 27.5793L109.766 28.2441L109.772 28.2664L109.726 28.5414L109.589 28.7453C109.364 29.3312 109.167 29.9335 108.999 30.5521L109.036 30.781L108.944 30.9728L108.958 31.1125L108.903 31.175L108.88 31.181L108.687 32.3318L108.545 32.8716L108.416 33.5511L108.325 34.1012L108.273 34.354L108.231 34.8193L108.226 34.8921L108.244 34.959L108.24 35.0319L108.253 35.1716L108.249 35.2444L108.251 35.3396L108.297 35.4228L108.248 35.5075L108.288 35.9267L108.29 36.0218L108.267 36.2909L108.268 36.386L108.251 36.6774L108.197 36.8351L108.211 36.9748L108.174 37.1041L108.129 37.1161L108.285 37.6956L108.481 38.073L108.62 38.3226L108.748 38.6227L108.802 38.8233L108.781 38.9244L108.799 38.9913L108.878 39.3762L108.761 39.742L108.694 39.7599L108.616 39.7333L108.513 39.6174L108.486 39.6963L108.369 39.7038L108.29 39.6772L108.262 39.6609L108.299 39.5315L108.2 38.9846L108.164 38.8508L108.112 38.7453L107.96 38.3561L107.912 38.1777L107.901 37.87L107.877 37.7809L107.908 37.6292L107.885 37.54L107.911 37.4612C107.886 37.2769 107.889 37.1089 107.891 36.941C107.9 36.7953 107.915 36.6719 107.901 36.5322L107.871 36.4207L107.886 36.2973C107.886 36.2973 107.908 36.2913 107.902 36.269L107.826 36.0744L107.825 35.9793L107.872 35.7993L107.905 35.7428C107.897 35.2671 107.933 34.7795 107.976 34.3142C107.979 34.1462 107.987 34.0005 108.018 33.8489L108.046 33.1487L108.099 32.991L108.189 32.704L108.256 32.3279L108.287 32.1762C108.423 31.6141 108.559 31.0521 108.723 30.5063L108.769 30.2313L108.829 30.0959L108.972 29.6513L108.993 29.5502L109.073 29.3137L109.196 28.9702L109.254 28.7397L109.313 28.6044C109.335 28.5984 109.329 28.5761 109.345 28.5478L109.382 28.4185L109.436 28.2608L109.784 27.3313L109.8 27.3031L109.788 27.2585L109.827 27.2243L109.962 26.9253L109.95 26.8807L110.032 26.7394L110.046 26.616L110.144 26.4464L110.224 26.21L110.288 26.0018L110.337 25.917L110.429 25.7251L110.48 25.4724L110.605 25.224L110.693 25.1049L111.463 23.3455L111.46 23.1552L111.629 22.8949L111.701 22.8041L111.861 22.3312L111.916 22.2687L111.981 22.1556L112.018 22.0263L112.147 21.705L112.239 21.5132L112.347 21.293L112.648 20.5435L112.664 20.5152L112.695 20.3635L112.882 19.8118L112.94 19.5813L113.208 18.8883L113.341 18.4942L113.732 17.4576L114.028 16.4227L114.125 16.158L114.203 15.8264L114.535 14.9251L114.71 14.3288L114.888 13.9228L114.898 13.8723L114.948 13.5243L114.946 13.4292L114.971 13.2553L114.937 13.2167L114.87 13.2346L114.852 13.1677L114.919 13.1498L114.718 12.8453L114.584 12.5229L114.587 12.3549L114.585 12.2598L114.456 12.2227L113.954 12.3096L113.431 12.4975C112.988 12.8072 112.58 13.1556 112.165 13.4816L110.93 14.5772L110.759 14.7424L110.676 14.7885L110.637 14.8228L110.627 14.8733L110.357 15.113L110.29 15.1309L110.164 15.2842L110.042 15.3646L109.987 15.4271L109.944 15.5342L109.867 15.6026L109.777 15.6265L109.739 15.6608L109.751 15.7053L109.657 15.8021L109.631 15.8809L109.513 15.8885L109.458 15.951L109.123 16.3037L109.017 16.3558L108.604 16.777L108.444 16.8917L108.218 17.1194L108.113 17.1715L107.777 17.5242L107.728 17.609L107.645 17.6552L107.613 17.7117L107.541 17.8025L107.503 17.8367L107.42 17.8829L107.287 18.0139L107.127 18.1285L106.979 18.2878L106.952 18.3666L106.781 18.5318L106.353 18.7181L106.083 18.9578L105.961 19.0382L105.872 19.0621L105.833 19.0963L105.845 19.1409L105.773 19.1365L105.789 19.1083L105.744 19.1202C105.628 19.2229 105.478 19.287 105.357 19.3674L105.036 19.5967L104.754 19.7918L104.587 19.8842L104.387 19.9379L104.285 19.9172L104.201 19.8683L103.888 19.5937C103.882 19.5714 103.854 19.555 103.848 19.5328C103.693 19.3115 103.652 18.8923 103.753 18.1965C103.782 17.9497 103.856 17.691 103.908 17.4382C103.966 17.2077 103.997 17.056 104.132 16.7571L104.185 16.5995L104.208 16.3304L104.287 15.9988L104.295 15.8531L104.352 15.5275L104.656 14.9682L104.81 14.473L104.93 14.2974L105.001 14.2067L105.022 14.1056L104.965 14.0729L105.032 14.055L105.044 14.0996L105.127 14.0534L105.121 14.0311L105.142 13.93L105.323 13.7143L105.556 13.604L105.585 13.6203L105.639 13.5578C105.678 13.5236 105.7 13.5176 105.757 13.5502C105.785 13.5665 105.813 13.5829 105.819 13.6051C105.848 13.6215 105.854 13.6438 105.854 13.6438L105.876 13.6378L105.913 13.8667L105.9 14.0852L105.804 14.3499L105.681 14.6934L105.574 15.0087L105.58 15.031L105.438 15.2125L105.35 15.3315L104.467 16.7626L104.424 16.8697C104.345 17.1062 104.242 17.3486 104.168 17.6073L104.074 17.9672L104.083 18.1797L104.08 18.3477L104.053 18.4265L103.984 18.6124L103.979 18.6853L103.941 18.7195L103.918 18.7255C103.905 18.944 103.931 19.1283 104.011 19.2501C104.162 19.5443 104.526 19.5661 105.279 19.0777L105.462 18.957L105.494 18.9005L105.748 18.6891L105.854 18.637L105.921 18.619L105.975 18.5565L106.042 18.5386L106.587 17.9865L106.748 17.8718L106.959 17.7675L107.052 17.6708L107.288 17.3925L107.455 17.3002L107.593 17.1915L107.625 17.1349L107.67 17.123L108.832 16.0231L108.849 15.9948L108.936 15.8758L109.113 15.7329L109.15 15.6035L109.217 15.5856Z" fill="#65CA75"/>
</svg>
